<svg width="373" height="98" fill="none" xmlns="http://www.w3.org/2000/svg"><g clip-path="url(#clip0)" fill-rule="evenodd" clip-rule="evenodd"><path d="M88.409 74.326c4.802-9.747 11.889-28.887 14.408-29.242l6.626-.935c4.507-.512 6.062-1.87 2.392-3.693-5.305 1.441-9.659.268-11.813 2.875-.952 1.152-4.608 6.734-5.651 8.741-1.679 3.228-5.627 8.113-7.09 11.446-.702 1.599-.312 3.82-1.288 5.26-1.774 2.62 1.237 3.343 2.416 5.548z" fill="#1A2C3D"/><path d="M8.29 50.368c.162-.652-1.451-3.982-2.352-4.369-.33-.142-5.26-1.692-5.312-1.691-.805 2.085 2.052 2.578 3.578 3.047 4.223 1.3 1.963.478 4.087 3.013z" fill="#383689"/><path d="M111.861 29.73c-6.535-.128-8.928.938-12.634.985-5.775.071-5.95-.701-9.478-4.858-4.647-5.477-9.283-10.838-14.178-16.114.988 2.218 5.93 7.493 7.81 9.514 2.978 3.199 5.232 6.118 8.027 9.297 4.933 5.584 6.176 4.922 10.843 4.908 5.622-.018 13.519-.899 9.61-3.733z" fill="#1A2C3D"/><path d="M10.25 82.457c-.36 2.033.848 3.458 4.128 1.265 1.724-1.375 2.723-2.698 2.79-2.784 2.472-3.142 4.81-5.722 5.006-9.946.1-2.184-5.82-20.11-7.07-22.802.67 5.596 5.549 15.204 5.46 20.356-.079 4.593-6.93 11.728-10.314 13.91zm4.922 8.625c.051 2.88 3.362 1.534 4.768.558 2.157-1.172 3.988-2.993 5.378-4.062 2.894-3.34 12.704-1.265 29.444-.104 2.412.31 5.253.44 7.718.617 5 .359 2.723.317 6.562 1.86-2.627-4.603-8.372-4.684-13.087-4.86-10.576-1.102-26.116-3.732-29.797-1.877-3.747 1.791-12.238 9-10.986 7.868zm53.87-1.132c13.961 15.624 15.938 5.04 10.359-2.752.304 2.922 1.899 2.692-.6 5.322-2.464 2.593-7.876-2.349-9.759-2.57z" fill="#383689"/><path d="M13.884 91.745c1.227.798 8.238-6.032 11.906-7.795 2.01-.966 6.245-.386 15.474.18 6.15.496 10.248.793 15.734 1.072 4.982.391 7.798.588 12.044 4.749l4.645 3.811c2.64 1.878 5.595 3.046 6.66 2 1.32-.935.491-5.309-1.286-9.336-2.257-3.679-8.25-10.493-12.58-11.052-6.164-.795-16.419-.774-22.896-.856-5.455-.07-16.465-1.317-20.858 2.228-2.512 2.027-12.936 12.7-8.843 14.999z" fill="#013F94"/><path d="M84.95 83.09c2.516 1.66 5.777 4.384 7.75 2.348 3.233-3.265-7.01-14.033-3.983-18.501 2.465-5.396 3.85-8.569 6.243-13.17 1.043-2.007 4.254-8.683 5.206-9.835 2.154-2.607 12.481-1.566 14.281-4.875.31-1.698-3.754-2.715-9.704-2.725-3.922-.006-7.866-.694-9.76 1.458-2.39 2.58-6.818 11.325-8.727 14.843-1.607 2.962-7.57 12.935-8.191 15.323-1.298 4.987 3.329 11.782 6.885 15.134z" fill="#B9295C"/><path d="M2.226 45.112c.053 0 3.381.745 3.712.887.9.387 2.514 3.718 2.353 4.37.239.504 4.682 16.83 4.774 17.615.556 4.735-7.005 14.1-4.112 14.77 4.615-.332 11.532-9.615 11.611-14.209.089-5.151-4.79-14.76-5.46-20.355-.78-4.486-3.685-5.726-7.708-6.22-6.413-.788-9.981 1.504-5.17 3.142z" fill="#3E96D6"/><path d="M75.57 9.744c4.896 5.276 9.531 10.637 14.18 16.114 3.526 4.157 3.702 5.555 9.476 5.483 8.19-.437 12.347-.321 13.15-1.942 1.05-2.119-3.035-2.245-8.227-2.801-4.343-.465-4.778-.238-9.66-4.915-4.047-3.875-9.216-8.332-12.862-12.412-3.326-1.199.937-5.714 1.987-7.197 2.442-5.197-12.95 1.18-8.043 7.67z" fill="#FD5C01"/><path d="M4.979 36.543c2.874 1.258 8.262.83 10.379-1.735 2.072-2.512 4.232-4.993 6.339-7.482 2.417-2.856 11.89-12.642 12.143-15.593.003-1.415-2.196-3.647-3.785-4.247-2.229-.404-1.326 2.995-1.127 4.653.265 2.22-5.839 7.837-7.428 9.687-1.048 1.22-6.837 8.223-7.608 8.58-.785.364-1.642 2.286-6.376 3.53-2.58.68-4.334 1.757-2.537 2.607z" fill="#B1E41B"/><path d="M88.251 33.702c.357.907.324 1.97.131 2.636l-.415 1.436-17.6 29.829-4.637 2.178-37.473-.474c-3.137-.064.379 1.5 2.088 1.698 2.043.237 4.372.107 6.459.166 4.332.122 8.67.209 13 .343 4.235.131 8.823.229 13.053.215 4.096-.013 7.27.117 9.694-3.55 3.355-5.078 6.652-11.473 9.764-16.838 2.99-5.151 9.3-12.797 5.747-18.397l.19.758z" fill="#383689"/><path d="M36.017 8.891c2.016 2.937 6.385 1.82 9.59 1.359 3.605-.52 7.229-1.006 10.841-1.461 3.528-.446 7.14-1.005 10.632-1.671 2.559-.489 4.86-3.764 6.598-5.708.57-2.4-2.168-1.181-3.408-.38-1.211 1.052-2.662 2.073-4.306 2.508-2.876.762-8.778 1.196-12.016 1.612-1.688.217-13.156 1.995-13.97 1.387-1.373-1.028-1.614-2.193-3.04-1.847-1.067.363-1.404 2.422-.921 4.201z" fill="#ECCD01"/><path d="M36.017 8.891c1.426 4.638 5.663 3.647 9.593 3.162 4.064-.501 8.14-.995 12.2-1.524 2.5-.326 9.801-1.05 11.761-1.96 1.083-.503 7.344-5.919 4.108-7.159-1.74 1.944-4.04 5.219-6.599 5.707A172.154 172.154 0 0156.448 8.79c-3.612.455-7.236.942-10.841 1.46-3.205.462-7.574 1.58-9.59-1.358zM5.809 36.84c-4.253 2.441 7.42 2.97 9.479.74 1.785-1.597 5.21-6.21 6.938-8.303 2.295-2.78 4.653-5.518 6.923-8.319 2.007-2.476 6.547-5.787 4.691-9.226-.254 2.952-9.726 12.738-12.143 15.594-2.107 2.49-4.267 4.97-6.34 7.482-2.116 2.565-6.085 2.186-9.548 2.032z" fill="#383689"/><path d="M70.367 67.603l17.6-29.83c-.053-2.193-2.089-1.207-3.813-1.092-1.673.111-3.411.156-5.095.24-3.628.183-7.252.46-10.878.643-3.476.175-7.645-.783-8.726 2.548-.755 2.328-3.762 4.677-5.984 5.561-2.901 1.155-6.548 1.347-9.29-.349-3.977-2.459-2.326-6.268-5.17-6.1-2.528.149-20.994.98-21.766 1.356l-.508.17 8.928 26.524.084-.004c.076.012 7.077-8.079 7.715-8.85 2.61-3.156 10.829-1.705 14.815-1.841 3.247-.11 13.218-1.172 14.986 1.465 2.154 3.21 5.098 6.277 7.102 9.559zm17.884-33.901l-.189-.758-17.776-21.117-.109.095c-7.334 7.862-1.731 6.901-14.204 7.944-3.37.281-6.839.507-10.19.913-4.081.496-4.76-.675-7.4-3.393-2.794-2.875-3.63-.129-5.662 2.21-1.711 1.97-3.397 4.01-5.078 6.01-2.64 3.139-8.27 9.056-9.795 12.451 6.822-.066 13.8-.946 20.64-1.125 4.887-.128 4.615-8.12 14.13-7.564 2.82.165 5.657 1.395 6.798 4.116 1.313 3.13 5.377 1.732 8.548 1.523 6.761-.447 13.526-.854 20.287-1.305z" fill="#29A73F"/><path d="M28.257 69.307l37.473.473c2.4-.702.481-1.84-.547-3.343a98.137 98.137 0 00-2.867-3.941c-1.22-1.602-1.357-2.839-3.592-2.84-2.239-.001-4.476-.008-6.721-.008h-9.74c-5.89 0-5.248-1.222-8.905 3.116-1.175 1.395-4.746 5.067-5.1 6.543zM65.73 11.165c-4.588.055-11.605 1.298-16.42 1.844-2.729.31-5.456.65-8.185.94-4.167.44-.662 1.867.897 3.502 2.185 2.291 4.164 1.193 7.13.987 2.765-.193 5.652-.485 8.417-.762 2.907-.292 5.19.37 6.893-2.203 1.074-1.623 4.478-4.348 1.268-4.309zm-8.8 27.081c-.164-.066-8.026.426-8.928.468-2.863.133-7.026-.066-2.878 3.675 2.007 1.81 5.106 1.819 7.495.825.986-.41 2.166-1.248 2.904-2.021.288-.302 2.045-2.686 1.406-2.947zm-5.678-6.533c-2.441.156-4.485.977-6.105 2.876-2.604 3.052 2.224 1.752 4.675 1.564 1.323-.1 7.779.09 7.167-1.286-.982-2.21-3.44-3.3-5.737-3.154z" fill="#29A73F"/><path d="M83.6 81.704c6.34 9.252 16.598 6.86 7.535-4.348.284 1.997 2.653 4.013.239 6.903-1.8 1.618-5.148-.737-7.774-2.555zM81.627 9.27c.262-1.704 5.67-7.037 1.987-7.197-1.05 1.483-5.313 5.999-1.987 7.197z" fill="#383689"/><path d="M70.367 67.603l17.6-29.83c-.053-2.193-2.089-1.207-3.813-1.092-1.673.111-3.411.156-5.095.24-3.628.183-7.252.46-10.878.643-3.476.175-7.645-.783-8.726 2.548-.755 2.328-3.762 4.677-5.984 5.561-2.901 1.155-6.548 1.347-9.29-.349-3.977-2.459-2.326-6.268-5.17-6.1-2.528.149-20.994.98-21.766 1.356l-.508.17 8.928 26.524.084-.004c.076.012 7.077-8.079 7.715-8.85 2.61-3.156 10.829-1.705 14.815-1.841 3.247-.11 13.218-1.172 14.986 1.465 2.154 3.21 5.098 6.277 7.102 9.559zm17.884-33.901l-.189-.758-17.776-21.117-.109.095c-7.334 7.862-1.731 6.901-14.204 7.944-3.37.281-6.839.507-10.19.913-4.081.496-4.76-.675-7.4-3.393-2.794-2.875-3.63-.129-5.662 2.21-1.711 1.97-3.397 4.01-5.078 6.01-2.64 3.139-8.27 9.056-9.795 12.451 6.822-.066 13.8-.946 20.64-1.125 4.887-.128 4.615-8.12 14.13-7.564 2.82.165 5.657 1.395 6.798 4.116 1.313 3.13 5.377 1.732 8.548 1.523 6.761-.447 13.526-.854 20.287-1.305z" fill="#34A93E"/><path d="M28.257 69.307l37.473.473c2.4-.702.481-1.84-.547-3.343a98.137 98.137 0 00-2.867-3.941c-1.22-1.602-1.357-2.839-3.592-2.84-2.239-.001-4.476-.008-6.721-.008h-9.74c-5.89 0-5.248-1.222-8.905 3.116-1.175 1.395-4.746 5.067-5.1 6.543zM65.73 11.165c-4.588.055-11.605 1.298-16.42 1.844-2.729.31-5.456.65-8.185.94-4.167.44-.662 1.867.897 3.502 2.185 2.291 4.164 1.193 7.13.987 2.765-.193 5.652-.485 8.417-.762 2.907-.292 5.19.37 6.893-2.203 1.074-1.623 4.478-4.348 1.268-4.309zm-8.8 27.081c-.164-.066-8.026.426-8.928.468-2.863.133-7.026-.066-2.878 3.675 2.007 1.81 5.106 1.819 7.495.825.986-.41 2.166-1.248 2.904-2.021.288-.302 2.045-2.686 1.406-2.947zm-5.678-6.533c-2.441.156-4.485.977-6.105 2.876-2.604 3.052 2.224 1.752 4.675 1.564 1.323-.1 7.779.09 7.167-1.286-.982-2.21-3.44-3.3-5.737-3.154z" fill="#34A93E"/><path d="M8.29 50.368c.162-.652-1.451-3.982-2.352-4.369-.33-.142-5.26-1.692-5.312-1.691-.805 2.085 2.052 2.578 3.578 3.047 4.223 1.3 1.963.478 4.087 3.013zm1.96 32.089c-.36 2.033.848 3.458 4.128 1.265 1.724-1.375 2.723-2.698 2.79-2.784 2.472-3.142 4.81-5.722 5.006-9.946.1-2.184-5.82-20.11-7.07-22.802.67 5.596 5.549 15.204 5.46 20.356-.079 4.593-6.93 11.728-10.314 13.91zm4.922 8.625c.051 2.88 3.362 1.534 4.768.558 2.157-1.172 3.988-2.993 5.378-4.062 2.894-3.34 12.704-1.265 29.444-.104 2.412.31 5.253.44 7.718.617 5 .359 2.723.317 6.562 1.86-2.627-4.603-8.372-4.684-13.087-4.86-10.576-1.102-26.116-3.732-29.797-1.877-3.747 1.791-12.238 9-10.986 7.868zm53.87-1.132c13.961 15.624 15.938 5.04 10.359-2.752.304 2.922 1.899 2.692-.6 5.322-2.464 2.593-7.876-2.349-9.759-2.57z" fill="#1A2C3D"/><path d="M13.884 91.745c1.227.798 8.238-6.032 11.906-7.795 2.01-.966 6.245-.386 15.474.18 6.15.496 10.248.793 15.734 1.072 4.982.391 7.798.588 12.044 4.749l4.645 3.811c2.64 1.878 5.595 3.046 6.66 2 1.32-.935.491-5.309-1.286-9.336-2.257-3.679-8.25-10.493-12.58-11.052-6.164-.795-16.419-.774-22.896-.856-5.455-.07-16.465-1.317-20.858 2.228-2.512 2.027-12.936 12.7-8.843 14.999z" fill="#12438C"/><path d="M2.226 45.112c.053 0 3.381.745 3.712.887.9.387 2.514 3.718 2.353 4.37.239.504 4.682 16.83 4.774 17.615.556 4.735-7.005 14.1-4.112 14.77 4.615-.332 11.532-9.615 11.611-14.209.089-5.151-4.79-14.76-5.46-20.355-.78-4.486-3.685-5.726-7.708-6.22-6.413-.788-9.981 1.504-5.17 3.142z" fill="#0096CF"/><path d="M75.57 9.744c4.896 5.276 9.531 10.637 14.18 16.114 3.526 4.157 3.702 5.555 9.476 5.483 8.19-.437 12.347-.321 13.15-1.942 1.05-2.119-3.035-2.245-8.227-2.801-4.343-.465-4.778-.238-9.66-4.915-4.047-3.875-9.216-8.332-12.862-12.412-3.326-1.199.937-5.714 1.987-7.197 2.442-5.197-12.95 1.18-8.043 7.67z" fill="#DF4B22"/><path d="M4.979 36.543c2.874 1.258 8.262.83 10.379-1.735 2.072-2.512 4.232-4.993 6.339-7.482 2.417-2.856 11.89-12.642 12.143-15.593.003-1.415-2.196-3.647-3.785-4.247-2.229-.404-1.326 2.995-1.127 4.653.265 2.22-5.839 7.837-7.428 9.687-1.048 1.22-6.837 8.223-7.608 8.58-.785.364-1.642 2.286-6.376 3.53-2.58.68-4.334 1.757-2.537 2.607z" fill="#98CB2E"/><path d="M88.251 33.702c.357.907.324 1.97.131 2.636l-.415 1.436-17.6 29.829-4.637 2.178-37.473-.474c-3.137-.064.379 1.5 2.088 1.698 2.043.237 4.372.107 6.459.166 4.332.122 8.67.209 13 .343 4.235.131 8.823.229 13.053.215 4.096-.013 7.27.117 9.694-3.55 3.355-5.078 6.652-11.473 9.764-16.838 2.99-5.151 9.3-12.797 5.747-18.397l.19.758z" fill="#1A2C3D"/><path d="M36.017 8.891c2.016 2.937 6.385 1.82 9.59 1.359 3.605-.52 7.229-1.006 10.841-1.461 3.528-.446 7.14-1.005 10.632-1.671 2.559-.489 4.86-3.764 6.598-5.708.57-2.4-2.168-1.181-3.408-.38-1.211 1.052-2.662 2.073-4.306 2.508-2.876.762-8.778 1.196-12.016 1.612-1.688.217-13.156 1.995-13.97 1.387-1.373-1.028-1.614-2.193-3.04-1.847-1.067.363-1.404 2.422-.921 4.201z" fill="#EECB00"/><path d="M36.017 8.891c1.426 4.638 5.663 3.647 9.593 3.162 4.064-.501 8.14-.995 12.2-1.524 2.5-.326 9.801-1.05 11.761-1.96 1.083-.503 7.344-5.919 4.108-7.159-1.74 1.944-4.04 5.219-6.599 5.707A172.154 172.154 0 0156.448 8.79c-3.612.455-7.236.942-10.841 1.46-3.205.462-7.574 1.58-9.59-1.358zM5.809 36.84c-4.253 2.441 7.42 2.97 9.479.74 1.785-1.597 5.21-6.21 6.938-8.303 2.295-2.78 4.653-5.518 6.923-8.319 2.007-2.476 6.547-5.787 4.691-9.226-.254 2.952-9.726 12.738-12.143 15.594-2.107 2.49-4.267 4.97-6.34 7.482-2.116 2.565-6.085 2.186-9.548 2.032z" fill="#1A2C3D"/><path d="M70.367 67.603l17.6-29.83c-.053-2.193-2.089-1.207-3.813-1.092-1.673.111-3.411.156-5.095.24-3.628.183-7.252.46-10.878.643-3.476.175-7.645-.783-8.726 2.548-.755 2.328-3.762 4.677-5.984 5.561-2.901 1.155-6.548 1.347-9.29-.349-3.977-2.459-2.326-6.268-5.17-6.1-2.528.149-20.994.98-21.766 1.356l-.508.17 8.928 26.524.084-.004c.076.012 7.077-8.079 7.715-8.85 2.61-3.156 10.829-1.705 14.815-1.841 3.247-.11 13.218-1.172 14.986 1.465 2.154 3.21 5.098 6.277 7.102 9.559zm17.884-33.901l-.189-.758-17.776-21.117-.109.095c-7.334 7.862-1.731 6.901-14.204 7.944-3.37.281-6.839.507-10.19.913-4.081.496-4.76-.675-7.4-3.393-2.794-2.875-3.63-.129-5.662 2.21-1.711 1.97-3.397 4.01-5.078 6.01-2.64 3.139-8.27 9.056-9.795 12.451 6.822-.066 13.8-.946 20.64-1.125 4.887-.128 4.615-8.12 14.13-7.564 2.82.165 5.657 1.395 6.798 4.116 1.313 3.13 5.377 1.732 8.548 1.523 6.761-.447 13.526-.854 20.287-1.305z" fill="#0A9F30"/><path d="M28.257 69.307l37.473.473c2.4-.702.481-1.84-.547-3.343a98.137 98.137 0 00-2.867-3.941c-1.22-1.602-1.357-2.839-3.592-2.84-2.239-.001-4.476-.008-6.721-.008h-9.74c-5.89 0-5.248-1.222-8.905 3.116-1.175 1.395-4.746 5.067-5.1 6.543zM65.73 11.165c-4.588.055-11.605 1.298-16.42 1.844-2.729.31-5.456.65-8.185.94-4.167.44-.662 1.867.897 3.502 2.185 2.291 4.164 1.193 7.13.987 2.765-.193 5.652-.485 8.417-.762 2.907-.292 5.19.37 6.893-2.203 1.074-1.623 4.478-4.348 1.268-4.309zm-8.8 27.081c-.164-.066-8.026.426-8.928.468-2.863.133-7.026-.066-2.878 3.675 2.007 1.81 5.106 1.819 7.495.825.986-.41 2.166-1.248 2.904-2.021.288-.302 2.045-2.686 1.406-2.947zm-5.678-6.533c-2.441.156-4.485.977-6.105 2.876-2.604 3.052 2.224 1.752 4.675 1.564 1.323-.1 7.779.09 7.167-1.286-.982-2.21-3.44-3.3-5.737-3.154z" fill="#0A9F30"/><path d="M83.6 81.704c6.34 9.252 16.598 6.86 7.535-4.348.284 1.997 2.653 4.013.239 6.903-1.8 1.618-5.148-.737-7.774-2.555zM81.627 9.27c.262-1.704 5.67-7.037 1.987-7.197-1.05 1.483-5.313 5.999-1.987 7.197z" fill="#1A2C3D"/><path d="M70.367 67.603l17.6-29.83c-.053-2.193-2.089-1.207-3.813-1.092-1.673.111-3.411.156-5.095.24-3.628.183-7.252.46-10.878.643-3.476.175-7.645-.783-8.726 2.548-.755 2.328-3.762 4.677-5.984 5.561-2.901 1.155-6.548 1.347-9.29-.349-3.977-2.459-2.326-6.268-5.17-6.1-2.528.149-20.994.98-21.766 1.356l-.508.17 8.928 26.524.084-.004c.076.012 7.077-8.079 7.715-8.85 2.61-3.156 10.829-1.705 14.815-1.841 3.247-.11 13.218-1.172 14.986 1.465 2.154 3.21 5.098 6.277 7.102 9.559zm17.884-33.901l-.189-.758-17.776-21.117-.109.095c-7.334 7.862-1.731 6.901-14.204 7.944-3.37.281-6.839.507-10.19.913-4.081.496-4.76-.675-7.4-3.393-2.794-2.875-3.63-.129-5.662 2.21-1.711 1.97-3.397 4.01-5.078 6.01-2.64 3.139-8.27 9.056-9.795 12.451 6.822-.066 13.8-.946 20.64-1.125 4.887-.128 4.615-8.12 14.13-7.564 2.82.165 5.657 1.395 6.798 4.116 1.313 3.13 5.377 1.732 8.548 1.523 6.761-.447 13.526-.854 20.287-1.305z" fill="#0A9F30"/><path d="M28.257 69.307l37.473.473c2.4-.702.481-1.84-.547-3.343a98.137 98.137 0 00-2.867-3.941c-1.22-1.602-1.357-2.839-3.592-2.84-2.239-.001-4.476-.008-6.721-.008h-9.74c-5.89 0-5.248-1.222-8.905 3.116-1.175 1.395-4.746 5.067-5.1 6.543zM65.73 11.165c-4.588.055-11.605 1.298-16.42 1.844-2.729.31-5.456.65-8.185.94-4.167.44-.662 1.867.897 3.502 2.185 2.291 4.164 1.193 7.13.987 2.765-.193 5.652-.485 8.417-.762 2.907-.292 5.19.37 6.893-2.203 1.074-1.623 4.478-4.348 1.268-4.309zm-8.8 27.081c-.164-.066-8.026.426-8.928.468-2.863.133-7.026-.066-2.878 3.675 2.007 1.81 5.106 1.819 7.495.825.986-.41 2.166-1.248 2.904-2.021.288-.302 2.045-2.686 1.406-2.947zm-5.678-6.533c-2.441.156-4.485.977-6.105 2.876-2.604 3.052 2.224 1.752 4.675 1.564 1.323-.1 7.779.09 7.167-1.286-.982-2.21-3.44-3.3-5.737-3.154z" fill="#0A9F30"/></g><g clip-path="url(#clip1)"><path d="M152.493 31.134l1.144 5.347h8.378l2.82-4.977-2.289 13.08h11.116l6.212-35.456h-11.688l-8.174 14.108-3.228-14.108h-11.566l-6.212 35.456h11.116l2.371-13.45zm57.01 13.45h13.814l6.334-8.103 4.291 8.103h11.893l-9.196-17.193 14.427-18.263h-13.814l-6.089 7.774-4.087-7.774h-11.892l8.909 16.823-10.38 13.245-4.21 5.388zm-21.496 0l3.474-8.103h5.558l.694 8.103h11.28l-.777-5.388-4.454-30.068h-9.727l-17.614 35.456h11.566zm5.967-14.52l2.288-5.306.368 5.306h-2.656z" fill="#fff"/><path d="M260.139 48.45l4.495-25.42h-11.116l-6.212 35.374h25.093l1.757-9.954h-14.017zm22.272-25.42l-6.212 35.374h11.116l6.212-35.374h-11.116zm34.002 0l-2.615 15.014-7.97-15.014h-8.5l-6.212 35.374h11.116l2.616-14.849 7.887 14.85h8.583l6.211-35.375h-11.116zm37.353 9.954l1.717-9.954H331.33l-6.212 35.374h24.234l1.717-9.954h-13.077l.571-3.332h9.318l1.676-9.378h-9.318l.45-2.756h13.077zM138.271 48.45l-3.474 9.954h108.626l1.757-9.954H138.271z" fill="#0A9F30"/><path d="M254.172 19.164l1.757-9.954h104.09l-3.841 9.954H254.172zm113.157-8.655c.48 0 .96.096 1.44.289.432.192.816.433 1.2.77.336.337.625.723.768 1.204.192.434.288.915.288 1.445 0 .674-.144 1.3-.48 1.83a3.61 3.61 0 01-1.344 1.349 3.57 3.57 0 01-1.824.481c-.672 0-1.296-.144-1.824-.481a3.617 3.617 0 01-1.344-1.349 3.6 3.6 0 01-.48-1.83c0-.626.144-1.3.48-1.83a3.618 3.618 0 011.344-1.348c.48-.386 1.104-.53 1.776-.53zm0 .722c-.528 0-1.008.145-1.488.386-.432.24-.816.625-1.056 1.059-.288.433-.384.963-.384 1.493 0 .53.144 1.011.384 1.493.288.433.624.819 1.104 1.06.432.24.96.385 1.488.385a3.11 3.11 0 001.488-.386c.432-.24.816-.626 1.056-1.06.24-.432.384-.962.384-1.492s-.144-1.06-.384-1.493a2.793 2.793 0 00-1.056-1.06c-.528-.24-1.008-.385-1.536-.385zm-.864 4.912h-.816v-3.9h1.824c.288 0 .528.048.72.144.192.096.336.24.432.385.096.145.144.386.144.578 0 .29-.096.53-.288.723a1.303 1.303 0 01-.768.385c.192.048.288.144.432.289.096.144.24.337.432.626l.48.77h-.96l-.336-.626c-.144-.288-.288-.481-.384-.626-.096-.144-.192-.24-.336-.289a.901.901 0 00-.384-.096h-.192v1.637zm0-3.274v1.06h.624c.288 0 .528-.049.672-.097a.506.506 0 00.24-.434.438.438 0 00-.192-.385c-.144-.096-.336-.144-.624-.144h-.72z" fill="#fff"/></g><path d="M136.603 69.072h10.651l-.629 3.51h-3.489l-1.887 10.692h-3.632l1.887-10.692h-3.51l.609-3.51zm20.997 0l-.608 3.388h-5.377l-.365 1.989h4.91l-.609 3.327h-4.869l-.366 2.09h5.479l-.589 3.408h-9.13l2.496-14.202h9.028zm1.829 0h5.357c1.42 0 2.549.487 3.388 1.46.839.961 1.15 2.199.933 3.714-.203 1.447-.831 2.604-1.887 3.47-1.027.865-2.373 1.298-4.037 1.298h-1.867l-.75 4.26h-3.632l2.495-14.202zm6.067 4.97c.095-.459.02-.824-.223-1.095-.244-.27-.609-.406-1.096-.406h-1.724l-.528 3.023h1.765c.474 0 .873-.135 1.197-.405a1.86 1.86 0 00.609-1.116zm5.941-4.97h5.356c1.42 0 2.55.487 3.388 1.46.839.961 1.15 2.199.933 3.714-.202 1.447-.831 2.604-1.886 3.47-1.028.865-2.374 1.298-4.038 1.298h-1.867l-.75 4.26h-3.632l2.496-14.202zm6.066 4.97c.095-.459.02-.824-.223-1.095-.244-.27-.609-.406-1.096-.406h-1.724l-.528 3.023h1.765c.474 0 .873-.135 1.197-.405a1.86 1.86 0 00.609-1.116zm6.265 9.232h-2.82l2.496-14.202h3.631l-1.217 6.919 6.229-6.919h2.8l-2.496 14.202h-3.611l1.217-6.918-6.229 6.918zm12.454-14.202h10.652l-.629 3.51h-3.49l-1.887 10.692h-3.632l1.887-10.692h-3.51l.609-3.51zm15.841 14.507c-1.407.027-2.651-.318-3.733-1.035-1.082-.73-1.86-1.684-2.334-2.86-.46-1.191-.554-2.435-.284-3.734.338-2.029 1.292-3.733 2.861-5.113 1.569-1.38 3.456-2.07 5.661-2.07 2.15 0 3.821.758 5.011 2.273 1.204 1.515 1.637 3.287 1.299 5.316-.352 2.056-1.299 3.774-2.841 5.153-1.515 1.38-3.395 2.07-5.64 2.07zm4.869-7.406c.203-1.122.007-2.042-.588-2.76-.582-.73-1.427-1.095-2.536-1.095-1.096 0-2.07.365-2.922 1.096-.839.717-1.359 1.637-1.562 2.76-.203 1.135-.021 2.062.548 2.779.595.717 1.433 1.075 2.515 1.075 1.083 0 2.063-.358 2.942-1.075.893-.744 1.427-1.67 1.603-2.78zm6.575-7.101h5.356c1.42 0 2.55.487 3.388 1.46.839.961 1.15 2.199.934 3.714-.203 1.447-.832 2.604-1.887 3.47-1.028.865-2.374 1.298-4.038 1.298h-1.866l-.751 4.26h-3.632l2.496-14.202zm6.066 4.97c.095-.459.02-.824-.223-1.095-.244-.27-.609-.406-1.096-.406h-1.724l-.528 3.023h1.765c.474 0 .873-.135 1.197-.405a1.86 1.86 0 00.609-1.116zm6.265 9.232h-2.82l2.496-14.202h3.631l-1.217 6.919 6.229-6.919h2.8l-2.496 14.202h-3.611l1.217-6.918-6.229 6.918zm18.236-14.202h5.62l-2.495 14.202h-3.632l.812-4.585h-.589l-3.571 4.585h-4.26l4.139-5.112c-.812-.433-1.394-1.056-1.745-1.867-.338-.825-.42-1.711-.244-2.658.271-1.285.92-2.36 1.948-3.226 1.055-.893 2.394-1.339 4.017-1.339zm-2.414 4.95c-.081.46.007.846.264 1.157.27.298.635.446 1.095.446h1.907l.569-3.205h-1.928c-.473 0-.886.148-1.238.446a1.98 1.98 0 00-.669 1.157zm24.033-5.356l-.305 1.705c1.853.284 3.26.967 4.221 2.049.946 1.068 1.284 2.387 1.014 3.956-.284 1.61-1.062 2.901-2.333 3.875-1.258.974-2.908 1.563-4.951 1.765l-.304 1.664h-3.49l.304-1.704c-1.866-.257-3.286-.933-4.26-2.029-.947-1.069-1.279-2.394-.994-3.977.284-1.623 1.055-2.915 2.313-3.875 1.271-.974 2.941-1.562 5.011-1.765l.284-1.664h3.49zm-7.487 7.507c-.271 1.407.473 2.239 2.232 2.496l.893-5.052c-1.813.257-2.854 1.109-3.125 2.556zm8.826 0c.122-.73 0-1.305-.365-1.724-.352-.42-.968-.697-1.847-.832l-.892 5.052c1.799-.257 2.833-1.09 3.104-2.496zm10.004-1.278l3.144-5.823h3.876l-5.681 9.921c-.907 1.597-1.928 2.72-3.064 3.368-1.136.636-2.496.94-4.078.913l.588-3.388c1.191.054 2.178-.338 2.963-1.177l-3.064-9.637h3.571l1.745 5.823zm7.342-5.823h10.652l-.629 3.51h-3.49l-1.886 10.692h-3.632l1.887-10.692h-3.51l.608-3.51zm14.688 5.235h2.232c1.353 0 2.408.446 3.165 1.339.757.879 1.021 1.988.791 3.327-.243 1.38-.845 2.442-1.805 3.186-.947.743-2.192 1.115-3.734 1.115h-5.863l2.495-14.202h9.415l-.609 3.51h-5.783l-.304 1.725zm1.522 3.266h-2.11l-.406 2.374h2.09c.865 0 1.366-.392 1.501-1.177.068-.392.007-.69-.182-.892-.19-.203-.487-.305-.893-.305zm12.332 6.006c-1.407.027-2.651-.318-3.733-1.035-1.082-.73-1.86-1.684-2.334-2.86-.459-1.191-.554-2.435-.284-3.734.339-2.029 1.292-3.733 2.861-5.113 1.569-1.38 3.456-2.07 5.661-2.07 2.151 0 3.821.758 5.011 2.273 1.204 1.515 1.637 3.287 1.299 5.316-.352 2.056-1.299 3.774-2.841 5.153-1.515 1.38-3.395 2.07-5.64 2.07zm4.869-7.406c.203-1.122.007-2.042-.588-2.76-.582-.73-1.427-1.095-2.536-1.095-1.096 0-2.07.365-2.922 1.096-.838.717-1.359 1.637-1.562 2.76-.203 1.135-.02 2.062.548 2.779.595.717 1.433 1.075 2.516 1.075 1.082 0 2.062-.358 2.941-1.075.893-.744 1.427-1.67 1.603-2.78zm2.351 7.142l.589-3.388c.771.08 1.352-.048 1.745-.386.392-.338.669-.994.832-1.968l1.501-8.501h10.104l-2.496 14.202h-3.631l1.887-10.692h-2.861l-.893 5.154c-.176 1-.44 1.866-.791 2.596-.338.73-.731 1.292-1.177 1.684-.433.393-.92.71-1.461.954a4.33 4.33 0 01-1.643.365c-.555.014-1.123.007-1.705-.02zm27.087-.04h-3.875l-.223-2.05h-4.727l-.974 2.05h-3.997l7.182-14.203h4.423l2.191 14.202zm-4.971-10.084l-2.353 4.91h2.881l-.528-4.91z" fill="#fff"/><defs><clipPath id="clip0"><path fill="#fff" d="M0 0h114.464v98H0z"/></clipPath><clipPath id="clip1"><path fill="#fff" transform="translate(122.304 8.624)" d="M0 0h249.857v49.971H0z"/></clipPath></defs></svg>