<svg width="484" height="326" fill="none" xmlns="http://www.w3.org/2000/svg"><path d="M181 23.128h303l-16.772 95.087h-248L181 23.128z" fill="#0A9F30"/><path d="M127.45 138H29.977l4.815-28.125 53.553-47.58c8.861-7.706 13.613-13.613 14.255-17.723.257-2.055-.257-3.724-1.541-5.009-1.156-1.412-2.89-2.119-5.201-2.119-6.678 0-12.907 4.752-18.686 14.256L45.58 32.629c6.164-10.531 14.062-18.558 23.694-24.08 9.76-5.65 20.227-8.476 31.4-8.476 12.971 0 23.63 4.367 31.977 13.1 8.219 8.604 11.173 19.648 8.862 33.133-1.285 7.834-3.917 14.576-7.899 20.227-3.724 5.393-9.76 11.686-18.107 18.878l-17.723 15.218H134L127.45 138zM251.273 3.155l-6.55 37.372h-45.847l-2.505 9.824h5.972c13.741 0 24.529 4.11 32.363 12.329 7.834 8.219 10.402 19.841 7.705 34.867-2.568 14.126-9.054 24.914-19.456 32.363-10.274 7.448-22.602 11.172-36.986 11.172-12.457 0-22.795-2.696-31.014-8.09-8.091-5.523-13.677-13.485-16.759-23.887l35.637-18.686c2.44 8.862 7.962 13.292 16.567 13.292 8.219 0 12.906-3.082 14.062-9.246.642-3.083 0-5.523-1.926-7.32-1.798-1.798-4.431-2.697-7.898-2.697h-44.306l19.841-81.293h81.1zM329.3 58.216c-1.108 5.601-4.032 9.848-8.771 12.74 4.862 3.386 6.801 8.28 5.816 14.68-.8 5.478-3.508 9.879-8.124 13.202-4.555 3.263-10.402 4.894-17.541 4.894h-27.328l11.356-64.626h24.742c7.017 0 12.341 1.815 15.972 5.447 3.57 3.57 4.863 8.124 3.878 13.663zm-22.804-3.231h-6.093l-1.57 8.678 7.109-.092c2.708-.37 4.278-1.785 4.709-4.247.246-1.477-.031-2.554-.831-3.231-.8-.739-1.908-1.108-3.324-1.108zm1.846 28.25c.431-2.646-.615-4.154-3.139-4.523l-8.955-.092-1.662 9.232h7.755c1.539 0 2.832-.4 3.878-1.2 1.108-.862 1.816-2 2.123-3.416zm62.277-44.13h21.603l-27.42 36.653-4.893 27.974h-18.464l4.893-27.882-14.495-36.744h19.388l6.278 19.572 13.11-19.572zm33.356 64.627H385.51l11.356-64.626h14.771l14.864 31.02 5.448-31.02h18.464l-11.356 64.626h-14.771l-14.864-31.021-5.447 31.021zM47.432 196.067H62.05c8.858 0 15.635 2.879 20.33 8.637 4.694 5.669 6.333 12.933 4.916 21.791-1.594 9.124-5.448 16.167-11.56 21.127-6.112 4.961-14.13 7.441-24.05 7.441H10.492l16.344-93.012h63.78l-4.518 25.778H48.894l-1.462 8.238zm8.637 23.12H43.313l-1.993 11.959h12.623c1.772 0 3.278-.532 4.518-1.595 1.329-1.063 2.17-2.524 2.525-4.385.354-1.86.044-3.321-.93-4.384-.886-1.063-2.215-1.595-3.987-1.595zm82.98 38.002c-10.01 0-18.647-2.48-25.911-7.441-6.998-4.96-11.959-11.205-14.882-18.735-2.835-7.53-3.588-15.546-2.259-24.05 2.126-12.845 8.194-23.874 18.204-33.086 10.099-9.302 22.5-13.952 37.205-13.952 7.441 0 14.173 1.417 20.197 4.252 6.112 2.746 10.94 6.555 14.484 11.427 7.352 10.01 10.009 21.349 7.972 34.016-2.037 12.933-8.017 24.095-17.938 33.485-9.744 9.389-22.102 14.084-37.072 14.084zm-13.155-32.421c3.543 4.252 8.593 6.378 15.148 6.378s12.357-2.126 17.407-6.378c5.049-4.341 8.149-9.744 9.301-16.211 1.151-6.467-.045-11.826-3.588-16.078-3.543-4.34-8.592-6.511-15.148-6.511-6.643 0-12.446 2.171-17.406 6.511-5.049 4.252-8.15 9.611-9.301 16.078-1.152 6.467.044 11.87 3.587 16.211zm129.818-29.764l5.847-32.953h26.575l-16.344 93.012h-26.575l5.979-34.281h-22.588l-5.98 34.281h-26.575l16.344-93.012h26.575l-5.847 32.953h22.589zm77.722 2.524l18.469-35.477h29.233l-37.338 64.311c-5.935 10.187-12.889 17.496-20.862 21.925-7.795 4.34-17.583 6.599-29.365 6.776l4.385-24.714c6.998-.178 13.11-2.304 18.337-6.378l-20.197-61.92h26.575l10.763 35.477zm78.474 59.661c-14.439 0-25.645-4.739-33.618-14.217-7.884-9.479-10.674-21.393-8.371-35.744 2.215-13.73 8.46-25.069 18.736-34.016 10.275-8.858 22.278-13.287 36.009-13.287 18.337 0 31.403 7.618 39.198 22.854l-24.316 12.889c-3.544-6.466-9.301-9.7-17.274-9.7-6.378 0-12.003 2.126-16.875 6.378-4.784 4.164-7.795 9.567-9.036 16.211-1.063 6.29 0 11.649 3.189 16.078 3.189 4.341 7.973 6.511 14.351 6.511 7.352 0 13.686-3.455 19.001-10.364l22.057 13.951c-4.783 7.176-10.94 12.712-18.469 16.61-7.441 3.898-15.635 5.846-24.582 5.846zM29.884 293.202c-.58 3.346-2.287 5.77-5.121 7.272 2.936 2.083 4.08 4.9 3.431 8.451-.58 3.278-2.185 5.822-4.814 7.631-2.595 1.81-6.078 2.715-10.448 2.715-6.692 0-10.995-2.749-12.907-8.246l8.963-4.763c.649 2.185 2.34 3.278 5.07 3.278 2.39 0 3.774-.82 4.15-2.459.238-1.366-.479-2.134-2.152-2.305l-5.429-.051 1.537-8.707 4.25-.051c1.776-.102 2.8-.87 3.074-2.305.239-1.57-.666-2.355-2.715-2.355-2.15 0-3.773 1.109-4.865 3.329l-8.144-5.327c1.503-2.424 3.5-4.285 5.993-5.583 2.526-1.297 5.343-1.946 8.45-1.946 3.858 0 6.897 1.093 9.117 3.278 2.287 2.185 3.141 4.9 2.56 8.144zm31.726 25.249H50.907l-.41-4.609H40.152l-2.049 4.609H26.784l17.72-35.851H56.49l5.122 35.851zm-12.906-23.815l-4.917 11.011h5.941l-1.024-11.011zM80.22 282.6h14.085c3.448 0 6.282 1.229 8.502 3.687 2.185 2.39 3.004 5.617 2.458 9.68-.58 3.79-2.202 6.795-4.866 9.014-2.697 2.22-6.145 3.329-10.345 3.329h-4.098l-1.792 10.141H73.92l6.3-35.851zm14.904 12.855c.17-.888 0-1.588-.512-2.1-.512-.546-1.195-.819-2.049-.819h-3.84l-1.025 5.838h4.097c.82 0 1.537-.256 2.151-.768.649-.546 1.042-1.263 1.178-2.151zm38.859-12.855l-1.639 9.321h-13.06l-.666 3.893h11.78l-1.639 9.219H116.98l-.717 3.994h13.316l-1.639 9.424h-23.56l6.3-35.851h23.303zm4.356 0h22.023l-1.742 9.936h-11.779l-4.559 25.915h-10.243l6.3-35.851zm26.503 35.851h-8.195l6.3-35.851h10.243l-2.766 15.877 14.033-15.877h8.195l-6.3 35.851h-10.243l2.766-15.877-14.033 15.877zm44.747.82c-5.566 0-9.885-1.827-12.958-5.481-3.039-3.653-4.114-8.245-3.227-13.777.854-5.292 3.261-9.663 7.222-13.111 3.961-3.415 8.587-5.122 13.879-5.122 7.068 0 12.105 2.937 15.109 8.809l-9.372 4.968c-1.366-2.492-3.585-3.738-6.658-3.738-2.459 0-4.627.819-6.505 2.458-1.844 1.605-3.005 3.688-3.483 6.248-.409 2.425 0 4.49 1.23 6.198 1.229 1.673 3.073 2.509 5.531 2.509 2.834 0 5.275-1.331 7.324-3.995l8.502 5.378c-1.844 2.766-4.217 4.9-7.119 6.402-2.868 1.502-6.027 2.254-9.475 2.254zm22.532-36.671h27.144l-1.741 9.936h-8.451l-4.558 25.915h-10.243l4.558-25.915h-8.451l1.742-9.936zm30.207 0h14.085c3.448 0 6.282 1.229 8.502 3.687 2.185 2.39 3.004 5.617 2.458 9.68-.58 3.79-2.202 6.795-4.865 9.014-2.698 2.22-6.146 3.329-10.346 3.329h-4.097l-1.793 10.141h-10.243l6.299-35.851zm14.904 12.855c.171-.888 0-1.588-.512-2.1-.512-.546-1.195-.819-2.048-.819h-3.842l-1.024 5.838h4.097c.82 0 1.537-.256 2.151-.768.649-.546 1.042-1.263 1.178-2.151zm38.46 22.996h-10.704l-.41-4.609h-10.346l-2.048 4.609h-11.319l17.721-35.851h11.984l5.122 35.851zm-12.907-23.815l-4.916 11.011h5.941l-1.025-11.011zm50.456-12.036l-4.558 25.915h4.354l-2.971 16.799h-10.243l1.229-6.863h-23.304l6.3-35.851h10.755l-4.558 25.915h7.683l4.558-25.915h10.755zm9.314 35.851h-8.195l6.3-35.851h10.243l-2.766 15.877 14.034-15.877h8.194l-6.299 35.851h-10.244l2.766-15.877-14.033 15.877zm64.875-36.671c2.97 0 5.617.547 7.938 1.639 2.322 1.093 4.132 2.578 5.429 4.456 2.629 3.858 3.551 8.246 2.766 13.163-.785 4.882-3.022 9.082-6.709 12.599-1.81 1.741-4.012 3.124-6.607 4.148-2.595.991-5.395 1.486-8.4 1.486-4.37 0-8.024-1.332-10.96-3.995-2.868-2.663-4.49-6.095-4.866-10.295h-4.25l-2.356 13.47h-10.244l6.3-35.851h10.243l-2.202 12.445h4.2c1.673-3.995 4.285-7.204 7.836-9.628 3.551-2.425 7.511-3.637 11.882-3.637zm2.407 24.994c1.946-1.673 3.141-3.756 3.585-6.249.444-2.492-.017-4.558-1.383-6.197-1.365-1.673-3.312-2.509-5.838-2.509-2.561 0-4.798.836-6.71 2.509-1.946 1.639-3.141 3.705-3.585 6.197-.444 2.493.017 4.576 1.383 6.249 1.4 1.639 3.346 2.458 5.839 2.458 2.526 0 4.763-.819 6.709-2.458z" fill="#fff"/></svg>