<svg width="23" height="22" viewBox="0 0 23 22" fill="none" xmlns="http://www.w3.org/2000/svg">
<g clip-path="url(#clip0)">
<g clip-path="url(#clip1)">
<path d="M15.4896 0.335938H7.47724C3.79023 0.335938 0.800293 3.32588 0.800293 7.01289V15.0252C0.800293 18.7122 3.79023 21.7022 7.47724 21.7022H15.4896C19.1766 21.7022 22.1665 18.7122 22.1665 15.0252V7.01289C22.1665 3.32588 19.1766 0.335938 15.4896 0.335938ZM20.1634 15.0252C20.1634 17.6025 18.0669 19.6991 15.4896 19.6991H7.47724C4.89994 19.6991 2.80338 17.6025 2.80338 15.0252V7.01289C2.80338 4.43558 4.89994 2.33902 7.47724 2.33902H15.4896C18.0669 2.33902 20.1634 4.43558 20.1634 7.01289V15.0252Z" fill="white"/>
<path d="M11.4836 5.67773C8.53377 5.67773 6.14209 8.06942 6.14209 11.0193C6.14209 13.9692 8.53377 16.3609 11.4836 16.3609C14.4335 16.3609 16.8252 13.9692 16.8252 11.0193C16.8252 8.06942 14.4335 5.67773 11.4836 5.67773ZM11.4836 14.3578C9.64348 14.3578 8.14517 12.8595 8.14517 11.0193C8.14517 9.17779 9.64348 7.68082 11.4836 7.68082C13.3238 7.68082 14.8221 9.17779 14.8221 11.0193C14.8221 12.8595 13.3238 14.3578 11.4836 14.3578Z" fill="white"/>
<path d="M17.4929 5.67719C17.8616 5.67719 18.1606 5.37825 18.1606 5.00949C18.1606 4.64073 17.8616 4.3418 17.4929 4.3418C17.1241 4.3418 16.8252 4.64073 16.8252 5.00949C16.8252 5.37825 17.1241 5.67719 17.4929 5.67719Z" fill="white"/>
</g>
</g>
<defs>
<clipPath id="clip0">
<rect width="21.3662" height="21.3662" fill="white" transform="translate(0.800293 0.335938)"/>
</clipPath>
<clipPath id="clip1">
<rect width="21.3662" height="21.3662" fill="white" transform="translate(0.800293 0.335938)"/>
</clipPath>
</defs>
</svg>
