<svg width="25" height="25" viewBox="0 0 25 25" fill="none" xmlns="http://www.w3.org/2000/svg">
<path d="M1.30091 11.9601C3.55738 10.7172 6.07622 9.6798 8.42971 8.63713C12.4786 6.92933 16.5436 5.25111 20.6496 3.68872C21.4485 3.4225 22.8839 3.16216 23.0247 4.34606C22.9475 6.02186 22.6306 7.68784 22.4131 9.35383C21.8611 13.0175 21.2231 16.6686 20.601 20.3202C20.3867 21.5365 18.863 22.1662 17.888 21.3878C15.545 19.8051 13.184 18.2379 10.8709 16.6186C10.1131 15.8486 10.8158 14.743 11.4925 14.1932C13.4223 12.2914 15.4688 10.6756 17.2978 8.6755C17.7911 7.48412 16.3334 8.48818 15.8526 8.79582C13.2107 10.6164 10.6335 12.5481 7.84813 14.1481C6.42536 14.9313 4.7671 14.262 3.34497 13.825C2.06985 13.2971 0.20133 12.7652 1.30078 11.9602L1.30091 11.9601Z" fill="white"/>
</svg>
