<svg width="22" height="22" viewBox="0 0 22 22" fill="none" xmlns="http://www.w3.org/2000/svg">
<g clip-path="url(#clip0)">
<path d="M21.2437 15.0616C21.1862 14.9668 20.831 14.2058 19.1216 12.6417C17.332 11.0038 17.5724 11.2698 19.7279 8.43781C21.0407 6.71308 21.5655 5.65981 21.4013 5.20954C21.245 4.78033 20.2794 4.89356 20.2794 4.89356L17.0689 4.91199C17.0689 4.91199 16.8312 4.88039 16.6536 4.9844C16.4813 5.0871 16.3705 5.32408 16.3705 5.32408C16.3705 5.32408 15.8617 6.6591 15.1832 7.794C13.7529 10.1889 13.18 10.3153 12.9463 10.1665C12.4027 9.82022 12.539 8.77354 12.539 8.03098C12.539 5.70984 12.8955 4.74215 11.8432 4.492C11.4933 4.40905 11.2369 4.35376 10.3434 4.34454C9.19757 4.33269 8.22667 4.34849 7.67778 4.61313C7.31186 4.78955 7.03007 5.18321 7.20235 5.20559C7.41469 5.23324 7.89546 5.3333 8.15054 5.67561C8.48041 6.11667 8.46839 7.10937 8.46839 7.10937C8.46839 7.10937 8.65803 9.84129 8.02634 10.181C7.59231 10.414 6.99802 9.93871 5.72263 7.76503C5.06957 6.65252 4.57544 5.42151 4.57544 5.42151C4.57544 5.42151 4.48062 5.19242 4.31101 5.06998C4.10535 4.92121 3.81688 4.87381 3.81688 4.87381L0.763959 4.89224C0.763959 4.89224 0.305886 4.90541 0.137615 5.10158C-0.01196 5.27668 0.125595 5.63743 0.125595 5.63743C0.125595 5.63743 2.51612 11.15 5.22182 13.9293C7.70449 16.4769 10.5224 16.3097 10.5224 16.3097H11.7991C11.7991 16.3097 12.1851 16.2675 12.3814 16.0582C12.563 15.866 12.5563 15.5052 12.5563 15.5052C12.5563 15.5052 12.5309 13.8161 13.3269 13.5672C14.1108 13.3223 15.1178 15.1998 16.1848 15.9226C16.9915 16.469 17.6045 16.3492 17.6045 16.3492L20.4584 16.3097C20.4584 16.3097 21.9515 16.2188 21.2437 15.0616Z" fill="white"/>
</g>
<defs>
<clipPath id="clip0">
<rect width="21.3662" height="21.3662" fill="white" transform="translate(0.0678711 0.335938)"/>
</clipPath>
</defs>
</svg>
