<svg width="22" height="22" viewBox="0 0 22 22" fill="none" xmlns="http://www.w3.org/2000/svg">
<g clip-path="url(#clip0)">
<path d="M20.4582 5.75731C19.8786 4.72639 19.2496 4.53676 17.969 4.46465C16.6897 4.37785 13.4727 4.3418 10.6858 4.3418C7.89349 4.3418 4.6752 4.37785 3.39723 4.46332C2.11926 4.53676 1.48896 4.72505 0.904059 5.75731C0.30714 6.7869 0 8.56029 0 11.6824C0 11.6851 0 11.6864 0 11.6864C0 11.6891 0 11.6904 0 11.6904V11.6931C0 14.8019 0.30714 16.5887 0.904059 17.6076C1.48896 18.6385 2.11793 18.8254 3.3959 18.9122C4.6752 18.987 7.89349 19.0311 10.6858 19.0311C13.4727 19.0311 16.6897 18.987 17.9703 18.9136C19.251 18.8268 19.88 18.6398 20.4595 17.6089C21.0618 16.59 21.3662 14.8032 21.3662 11.6945C21.3662 11.6945 21.3662 11.6904 21.3662 11.6878C21.3662 11.6878 21.3662 11.6851 21.3662 11.6838C21.3662 8.56029 21.0618 6.7869 20.4582 5.75731ZM8.01234 15.6926V7.68027L14.6893 11.6864L8.01234 15.6926Z" fill="white"/>
</g>
<defs>
<clipPath id="clip0">
<rect width="21.3662" height="21.3662" fill="white" transform="translate(0 0.335938)"/>
</clipPath>
</defs>
</svg>
