<svg width="22" height="22" fill="none" xmlns="http://www.w3.org/2000/svg"><g clip-path="url(#clip0)"><path d="M21.244 15.062c-.058-.095-.413-.856-2.122-2.42-1.79-1.638-1.55-1.372.606-4.204C21.04 6.713 21.565 5.66 21.4 5.21c-.156-.43-1.122-.316-1.122-.316l-3.21.018s-.238-.032-.415.072c-.173.103-.284.34-.284.34s-.508 1.335-1.187 2.47c-1.43 2.395-2.003 2.521-2.237 2.372-.543-.346-.407-1.392-.407-2.135 0-2.321.357-3.289-.696-3.539-.35-.083-.606-.138-1.5-.147-1.145-.012-2.116.003-2.665.268-.366.177-.648.57-.476.593.213.027.693.127.949.47.33.44.317 1.433.317 1.433s.19 2.732-.442 3.072c-.434.233-1.028-.242-2.303-2.416-.653-1.112-1.148-2.343-1.148-2.343s-.094-.23-.264-.352a1.339 1.339 0 00-.494-.196l-3.053.018s-.458.013-.626.21c-.15.175-.012.535-.012.535s2.39 5.513 5.096 8.292c2.482 2.548 5.3 2.38 5.3 2.38H11.8s.386-.042.582-.25c.182-.193.175-.554.175-.554s-.025-1.689.77-1.938c.785-.245 1.792 1.633 2.859 2.356.806.546 1.42.426 1.42.426l2.853-.04s1.494-.09.786-1.247z" fill="#fff"/></g><defs><clipPath id="clip0"><path fill="#fff" transform="translate(.068 .336)" d="M0 0h21.366v21.366H0z"/></clipPath></defs></svg>