<svg width="373" height="98" viewBox="0 0 373 98" fill="none" xmlns="http://www.w3.org/2000/svg">
<g clip-path="url(#clip0)">
<path fill-rule="evenodd" clip-rule="evenodd" d="M88.4087 74.3261C93.2115 64.5786 100.298 45.4392 102.817 45.0838L109.443 44.1491C113.95 43.637 115.505 42.2781 111.835 40.4561C106.53 41.8974 102.176 40.7243 100.022 43.3314C99.0701 44.4834 95.4144 50.0651 94.3707 52.0722C92.6922 55.3 88.7444 60.1849 87.2807 63.5179C86.5786 65.1168 86.9688 67.3381 85.9931 68.7784C84.2186 71.3978 87.2295 72.1208 88.4087 74.3261Z" fill="#1A2C3D"/>
<path fill-rule="evenodd" clip-rule="evenodd" d="M8.29087 50.3681C8.45184 49.7164 6.8388 46.3859 5.93833 45.999C5.60725 45.8567 0.678617 44.3068 0.626016 44.3076C-0.178774 46.3933 2.67789 46.8855 4.20442 47.3553C8.4266 48.6546 6.16698 47.8333 8.29087 50.3681Z" fill="#383689"/>
<path fill-rule="evenodd" clip-rule="evenodd" d="M111.861 29.7293C105.326 29.602 102.933 30.6684 99.2266 30.7145C93.4521 30.7862 93.2766 30.014 89.7495 25.8574C85.1018 20.3799 80.4659 15.019 75.5713 9.74316C76.5586 11.9607 81.5003 17.2356 83.3813 19.2568C86.3587 22.456 88.6132 25.3754 91.4081 28.5536C96.3414 34.1382 97.584 33.4761 102.251 33.4617C107.873 33.4443 115.77 32.5632 111.861 29.7293Z" fill="#1A2C3D"/>
<path fill-rule="evenodd" clip-rule="evenodd" d="M10.2498 82.4566C9.88967 84.4898 11.0976 85.9147 14.3776 83.7223C16.1024 82.3473 17.1014 81.0238 17.1689 80.9381C19.6396 77.7964 21.9783 75.2162 22.1738 70.9916C22.2748 68.8082 16.3538 50.8816 15.1041 48.1904C15.7739 53.7856 20.6528 63.3938 20.5643 68.5455C20.4854 73.1391 13.6334 80.2739 10.2498 82.4566Z" fill="#383689"/>
<path fill-rule="evenodd" clip-rule="evenodd" d="M15.1722 91.0819C15.2234 93.9614 18.5344 92.6159 19.9403 91.6395C22.0974 90.4682 23.9276 88.647 25.3181 87.5778C28.2124 84.238 38.0223 86.313 54.7624 87.4738C57.1736 87.7843 60.015 87.9145 62.4799 88.0912C67.4805 88.4496 65.2029 88.4077 69.0418 89.9508C66.4154 85.3484 60.67 85.2671 55.9555 85.0904C45.3793 83.9892 29.8388 81.3585 26.1578 83.2136C22.4115 85.0051 13.9201 92.2139 15.1722 91.0819Z" fill="#383689"/>
<path fill-rule="evenodd" clip-rule="evenodd" d="M69.042 89.9504C83.003 105.574 84.9797 94.9899 79.4006 87.1982C79.7047 90.12 81.2996 89.8896 78.8011 92.5196C76.3369 95.1134 70.9248 90.1712 69.042 89.9504Z" fill="#383689"/>
<path fill-rule="evenodd" clip-rule="evenodd" d="M13.8841 91.7447C15.1114 92.5435 22.1219 85.7132 25.7897 83.9503C27.8003 82.9839 32.0345 83.5645 41.2645 84.1309C47.4134 84.6263 51.5119 84.9226 56.9983 85.2018C61.9801 85.5931 64.7955 85.7903 69.0418 89.9506L73.6875 93.7621C76.3275 95.6397 79.2819 96.8083 80.3471 95.7619C81.6676 94.8266 80.8382 90.4532 79.0614 86.4262C76.8039 82.7473 70.8102 75.9329 66.4803 75.3741C60.3166 74.5785 50.0624 74.6 43.5848 74.5176C38.1299 74.4481 27.1199 73.2007 22.7269 76.746C20.2147 78.7733 9.79086 89.4461 13.8841 91.7447Z" fill="#013F94"/>
<path fill-rule="evenodd" clip-rule="evenodd" d="M84.9499 83.09C87.4659 84.7498 90.7268 87.4744 92.6995 85.4381C95.9328 82.1734 85.6906 71.4046 88.7173 66.9367C91.1822 61.5408 92.567 58.3683 94.9596 53.7673C96.0033 51.7602 99.2141 45.0839 100.166 43.932C102.32 41.3248 112.647 42.3657 114.447 39.057C114.757 37.3588 110.693 36.3416 104.743 36.332C100.821 36.3257 96.8768 35.6384 94.9837 37.7896C92.593 40.3695 88.1648 49.1146 86.256 52.6326C84.6486 55.5954 78.6859 65.5679 78.0646 67.9562C76.7672 72.943 81.394 79.7381 84.9499 83.09Z" fill="#B9295C"/>
<path fill-rule="evenodd" clip-rule="evenodd" d="M2.2262 45.1119C2.2788 45.1111 5.60707 45.857 5.93816 45.9993C6.83863 46.3862 8.45167 49.7167 8.2907 50.3684C8.52999 50.8731 12.9728 67.1987 13.0651 67.9839C13.6214 72.7187 6.05986 82.0833 8.95308 82.7543C13.5677 82.422 20.4852 73.1391 20.5641 68.5455C20.6526 63.3938 15.7737 53.7856 15.1039 48.1904C14.3236 43.7041 11.419 42.4639 7.39597 41.9696C0.982839 41.1817 -2.58529 43.4742 2.2262 45.1119Z" fill="#3E96D6"/>
<path fill-rule="evenodd" clip-rule="evenodd" d="M75.5709 9.74405C80.4655 15.0199 85.1014 20.3808 89.7491 25.8582C93.2762 30.0148 93.4517 31.4132 99.2262 31.3414C107.416 30.904 111.573 31.0197 112.376 29.3987C113.426 27.2801 109.341 27.1541 104.149 26.5979C99.8061 26.1326 99.3714 26.3596 94.4887 21.6834C90.4425 17.8084 85.2729 13.3514 81.6271 9.27056C78.3005 8.072 82.5635 3.55664 83.6143 2.0737C86.0556 -3.1228 70.6648 3.2549 75.5709 9.74405Z" fill="#FD5C01"/>
<path fill-rule="evenodd" clip-rule="evenodd" d="M4.97889 36.5428C7.85323 37.8014 13.2415 37.3733 15.3579 34.8082C17.4303 32.2964 19.5901 29.8152 21.6969 27.3262C24.1143 24.4702 33.5867 14.6845 33.8404 11.7326C33.8432 10.3184 31.6437 8.08637 30.0549 7.4863C27.826 7.08161 28.7291 10.4814 28.9276 12.1388C29.1935 14.3591 23.0892 19.976 21.5 21.8262C20.4521 23.0462 14.6628 30.0489 13.8922 30.4059C13.1073 30.7696 12.2503 32.6921 7.51603 33.9368C4.93563 34.6152 3.18192 35.6927 4.97889 36.5428Z" fill="#B1E41B"/>
<path fill-rule="evenodd" clip-rule="evenodd" d="M88.2511 33.7019C88.6081 34.6089 88.5747 35.672 88.3822 36.3379L87.9673 37.7738L70.3665 67.6029L65.7297 69.7809L28.2571 69.3074C25.1199 69.243 28.636 70.8078 30.3454 71.0055C32.3879 71.2417 34.7169 71.1121 36.8039 71.1711C41.1362 71.2934 45.4734 71.3799 49.8035 71.5141C54.039 71.6454 58.6272 71.743 62.8569 71.7291C66.9529 71.7156 70.1273 71.8458 72.5505 68.1787C75.9058 63.1013 79.2028 56.7059 82.3154 51.3411C85.3041 46.1897 91.6145 38.5443 88.0619 32.9443L88.2511 33.7019Z" fill="#383689"/>
<path fill-rule="evenodd" clip-rule="evenodd" d="M36.0166 8.89125C38.0334 11.8283 42.4023 10.7109 45.6067 10.2497C49.2119 9.73084 52.8359 9.24445 56.4482 8.78863C59.9762 8.34347 63.5877 7.7842 67.08 7.11756C69.6388 6.62907 71.9395 3.3539 73.6784 1.41029C74.2479 -0.989893 71.5103 0.228746 70.2699 1.02957C69.0587 2.08208 67.6076 3.10318 65.9637 3.53841C63.0883 4.29973 57.1858 4.73386 53.9477 5.14998C52.2596 5.36692 40.7917 7.14456 39.9788 6.53668C38.6049 5.5093 38.3635 4.34408 36.9383 4.68995C35.8715 5.05286 35.5341 7.11222 36.0166 8.89125Z" fill="#ECCD01"/>
<path fill-rule="evenodd" clip-rule="evenodd" d="M36.0166 8.89112C37.4431 13.5287 41.6798 12.5378 45.6105 12.0529C49.6744 11.5517 53.75 11.0577 57.8092 10.5292C60.3105 10.2034 67.6111 9.4781 69.5711 8.56866C70.6544 8.06603 76.9146 2.65048 73.6785 1.41016C71.9395 3.35377 69.6389 6.62894 67.08 7.11743C63.5877 7.78407 59.9762 8.34334 56.4483 8.7885C52.8359 9.24432 49.2119 9.73071 45.6067 10.2496C42.4023 10.7107 38.0334 11.8282 36.0166 8.89112Z" fill="#383689"/>
<path fill-rule="evenodd" clip-rule="evenodd" d="M5.80884 36.8404C1.55614 39.2811 13.2296 39.8096 15.2879 37.5791C17.0734 35.9828 20.4988 31.3691 22.2264 29.2765C24.5213 26.4968 26.8793 23.7585 29.149 20.958C31.156 18.4816 35.6957 15.1714 33.8402 11.7324C33.5865 14.6843 24.1142 24.47 21.6967 27.326C19.5899 29.8151 17.4302 32.2962 15.3577 34.8081C13.2414 37.3732 9.27202 36.9941 5.80884 36.8404Z" fill="#383689"/>
<path fill-rule="evenodd" clip-rule="evenodd" d="M70.3667 67.603L87.9675 37.7739C87.9143 35.5802 85.8781 36.5663 84.1543 36.681C82.4812 36.7924 80.743 36.8371 79.0594 36.9216C75.4311 37.1039 71.807 37.3817 68.1811 37.5642C64.7053 37.7392 60.5356 36.7809 59.4553 40.1121C58.7002 42.4404 55.6933 44.7887 53.4708 45.6732C50.5697 46.8278 46.9227 47.0202 44.1808 45.3245C40.2042 42.8653 41.8546 39.0555 39.0105 39.2235C36.4831 39.3728 18.0171 40.204 17.2454 40.5797L16.7373 40.7495L25.6648 67.2743L25.7486 67.2705C25.8245 67.2816 32.8259 59.1914 33.4641 58.4198C36.0745 55.2641 44.293 56.7149 48.279 56.5789C51.5259 56.4681 61.4969 55.4075 63.2649 58.0435C65.4189 61.2548 68.3632 64.3206 70.3667 67.603Z" fill="#29A73F"/>
<path fill-rule="evenodd" clip-rule="evenodd" d="M88.2513 33.7015L88.062 32.9439L70.286 11.8271L70.1774 11.9215C62.843 19.7839 68.4459 18.8231 55.9727 19.8655C52.6022 20.1471 49.134 20.3728 45.7833 20.7794C41.7016 21.2748 41.0236 20.1038 38.3834 17.3864C35.5893 14.5106 34.7522 17.257 32.7209 19.5953C31.0096 21.5653 29.3242 23.606 27.6428 25.6057C25.0037 28.7446 19.3729 34.6617 17.8481 38.0575C24.6695 37.9909 31.6473 37.1113 38.4877 36.9318C43.3753 36.8036 43.1027 28.8119 52.6172 29.3681C55.4387 29.533 58.2747 30.7634 59.416 33.4844C60.7287 36.614 64.7925 35.2164 67.9637 35.0069C74.7253 34.5603 81.4897 34.153 88.2513 33.7015Z" fill="#29A73F"/>
<path fill-rule="evenodd" clip-rule="evenodd" d="M28.2573 69.3069L65.7299 69.7804C68.1292 69.0781 66.2113 67.9409 65.1828 66.4368C64.2974 65.1421 63.269 63.7455 62.3165 62.4957C61.0959 60.894 60.9591 59.657 58.7238 59.656C56.4854 59.655 54.248 59.648 52.003 59.648H42.2622C36.3722 59.648 37.0146 58.4259 33.3583 62.764C32.1825 64.1592 28.6117 67.8311 28.2573 69.3069Z" fill="#29A73F"/>
<path fill-rule="evenodd" clip-rule="evenodd" d="M65.7298 11.1645C61.1416 11.2204 54.1253 12.4633 49.3102 13.0094C46.5814 13.3188 43.8536 13.6599 41.1246 13.9486C36.9584 14.3893 40.4632 15.8157 42.0222 17.4509C44.2069 19.7422 46.1863 18.6444 49.1517 18.4376C51.9174 18.2448 54.8044 17.9526 57.5689 17.6755C60.4761 17.3841 62.7594 18.0463 64.4622 15.4729C65.536 13.85 68.9399 11.1254 65.7298 11.1645Z" fill="#29A73F"/>
<path fill-rule="evenodd" clip-rule="evenodd" d="M56.9294 38.2464C56.7658 38.1798 48.9039 38.6723 48.0025 38.7142C45.1388 38.8474 40.9765 38.648 45.1244 42.3893C47.1309 44.1992 50.2297 44.208 52.6195 43.214C53.6055 42.8039 54.7853 41.9664 55.5227 41.1928C55.8108 40.8906 57.5678 38.5066 56.9294 38.2464Z" fill="#29A73F"/>
<path fill-rule="evenodd" clip-rule="evenodd" d="M51.2519 31.7132C48.8107 31.869 46.7675 32.6899 45.1467 34.5894C42.5434 37.6406 47.3713 36.3412 49.822 36.1534C51.145 36.0521 57.6007 36.2422 56.9888 34.8665C56.0065 32.6577 53.5484 31.5667 51.2519 31.7132Z" fill="#29A73F"/>
<path fill-rule="evenodd" clip-rule="evenodd" d="M83.6001 81.7044C89.9394 90.9562 100.198 88.5639 91.1345 77.3564C91.4192 79.3529 93.7877 81.369 91.374 84.2589C89.5743 85.877 86.2256 83.5215 83.6001 81.7044Z" fill="#383689"/>
<path fill-rule="evenodd" clip-rule="evenodd" d="M81.6272 9.2701C81.8888 7.56641 87.2976 2.2332 83.6144 2.07324C82.5637 3.55617 78.3006 8.07154 81.6272 9.2701Z" fill="#383689"/>
<path fill-rule="evenodd" clip-rule="evenodd" d="M70.3667 67.603L87.9675 37.7739C87.9143 35.5802 85.8781 36.5663 84.1543 36.681C82.4812 36.7924 80.743 36.8371 79.0594 36.9216C75.4311 37.1039 71.807 37.3817 68.1811 37.5642C64.7053 37.7392 60.5356 36.7809 59.4553 40.1121C58.7002 42.4404 55.6933 44.7887 53.4708 45.6732C50.5697 46.8278 46.9227 47.0202 44.1808 45.3245C40.2042 42.8653 41.8546 39.0555 39.0105 39.2235C36.4831 39.3728 18.0171 40.204 17.2454 40.5797L16.7373 40.7495L25.6648 67.2743L25.7486 67.2705C25.8245 67.2816 32.8259 59.1914 33.4641 58.4198C36.0745 55.2641 44.293 56.7149 48.279 56.5789C51.5259 56.4681 61.4969 55.4075 63.2649 58.0435C65.4189 61.2548 68.3632 64.3206 70.3667 67.603Z" fill="#34A93E"/>
<path fill-rule="evenodd" clip-rule="evenodd" d="M88.2513 33.7015L88.062 32.9439L70.286 11.8271L70.1774 11.9215C62.843 19.7839 68.4459 18.8231 55.9727 19.8655C52.6022 20.1471 49.134 20.3728 45.7833 20.7794C41.7016 21.2748 41.0236 20.1038 38.3834 17.3864C35.5893 14.5106 34.7522 17.257 32.7209 19.5953C31.0096 21.5653 29.3242 23.606 27.6428 25.6057C25.0037 28.7446 19.3729 34.6617 17.8481 38.0575C24.6695 37.9909 31.6473 37.1113 38.4877 36.9318C43.3753 36.8036 43.1027 28.8119 52.6172 29.3681C55.4387 29.533 58.2747 30.7634 59.416 33.4844C60.7287 36.614 64.7925 35.2164 67.9637 35.0069C74.7253 34.5603 81.4897 34.153 88.2513 33.7015Z" fill="#34A93E"/>
<path fill-rule="evenodd" clip-rule="evenodd" d="M28.2573 69.3069L65.7299 69.7804C68.1292 69.0781 66.2113 67.9409 65.1828 66.4368C64.2974 65.1421 63.269 63.7455 62.3165 62.4957C61.0959 60.894 60.9591 59.657 58.7238 59.656C56.4854 59.655 54.248 59.648 52.003 59.648H42.2622C36.3722 59.648 37.0146 58.4259 33.3583 62.764C32.1825 64.1592 28.6117 67.8311 28.2573 69.3069Z" fill="#34A93E"/>
<path fill-rule="evenodd" clip-rule="evenodd" d="M65.7298 11.1645C61.1416 11.2204 54.1253 12.4633 49.3102 13.0094C46.5814 13.3188 43.8536 13.6599 41.1246 13.9486C36.9584 14.3893 40.4632 15.8157 42.0222 17.4509C44.2069 19.7422 46.1863 18.6444 49.1517 18.4376C51.9174 18.2448 54.8044 17.9526 57.5689 17.6755C60.4761 17.3841 62.7594 18.0463 64.4622 15.4729C65.536 13.85 68.9399 11.1254 65.7298 11.1645Z" fill="#34A93E"/>
<path fill-rule="evenodd" clip-rule="evenodd" d="M56.9294 38.2464C56.7658 38.1798 48.9039 38.6723 48.0025 38.7142C45.1388 38.8474 40.9765 38.648 45.1244 42.3893C47.1309 44.1992 50.2297 44.208 52.6195 43.214C53.6055 42.8039 54.7853 41.9664 55.5227 41.1928C55.8108 40.8906 57.5678 38.5066 56.9294 38.2464Z" fill="#34A93E"/>
<path fill-rule="evenodd" clip-rule="evenodd" d="M51.2519 31.7132C48.8107 31.869 46.7675 32.6899 45.1467 34.5894C42.5434 37.6406 47.3713 36.3412 49.822 36.1534C51.145 36.0521 57.6007 36.2422 56.9888 34.8665C56.0065 32.6577 53.5484 31.5667 51.2519 31.7132Z" fill="#34A93E"/>
<path fill-rule="evenodd" clip-rule="evenodd" d="M8.29087 50.3681C8.45184 49.7164 6.8388 46.3859 5.93833 45.999C5.60725 45.8567 0.678617 44.3068 0.626016 44.3076C-0.178774 46.3933 2.67789 46.8855 4.20442 47.3553C8.4266 48.6546 6.16698 47.8333 8.29087 50.3681Z" fill="#1A2C3D"/>
<path fill-rule="evenodd" clip-rule="evenodd" d="M10.2498 82.4566C9.88967 84.4898 11.0976 85.9147 14.3776 83.7223C16.1024 82.3473 17.1014 81.0238 17.1689 80.9381C19.6396 77.7964 21.9783 75.2162 22.1738 70.9916C22.2748 68.8082 16.3538 50.8816 15.1041 48.1904C15.7739 53.7856 20.6528 63.3938 20.5643 68.5455C20.4854 73.1391 13.6334 80.2739 10.2498 82.4566Z" fill="#1A2C3D"/>
<path fill-rule="evenodd" clip-rule="evenodd" d="M15.1722 91.0819C15.2234 93.9614 18.5344 92.6159 19.9403 91.6395C22.0974 90.4682 23.9276 88.647 25.3181 87.5778C28.2124 84.238 38.0223 86.313 54.7624 87.4738C57.1736 87.7843 60.015 87.9145 62.4799 88.0912C67.4805 88.4496 65.2029 88.4077 69.0418 89.9508C66.4154 85.3484 60.67 85.2671 55.9555 85.0904C45.3793 83.9892 29.8388 81.3585 26.1578 83.2136C22.4115 85.0051 13.9201 92.2139 15.1722 91.0819Z" fill="#1A2C3D"/>
<path fill-rule="evenodd" clip-rule="evenodd" d="M69.042 89.9504C83.003 105.574 84.9797 94.9899 79.4006 87.1982C79.7047 90.12 81.2996 89.8896 78.8011 92.5196C76.3369 95.1134 70.9248 90.1712 69.042 89.9504Z" fill="#1A2C3D"/>
<path fill-rule="evenodd" clip-rule="evenodd" d="M13.8841 91.7447C15.1114 92.5435 22.1219 85.7132 25.7897 83.9503C27.8003 82.9839 32.0345 83.5645 41.2645 84.1309C47.4134 84.6263 51.5119 84.9226 56.9983 85.2018C61.9801 85.5931 64.7955 85.7903 69.0418 89.9506L73.6875 93.7621C76.3275 95.6397 79.2819 96.8083 80.3471 95.7619C81.6676 94.8266 80.8382 90.4532 79.0614 86.4262C76.8039 82.7473 70.8102 75.9329 66.4803 75.3741C60.3166 74.5785 50.0624 74.6 43.5848 74.5176C38.1299 74.4481 27.1199 73.2007 22.7269 76.746C20.2147 78.7733 9.79086 89.4461 13.8841 91.7447Z" fill="#12438C"/>
<path fill-rule="evenodd" clip-rule="evenodd" d="M2.2262 45.1119C2.2788 45.1111 5.60707 45.857 5.93816 45.9993C6.83863 46.3862 8.45167 49.7167 8.2907 50.3684C8.52999 50.8731 12.9728 67.1987 13.0651 67.9839C13.6214 72.7187 6.05986 82.0833 8.95308 82.7543C13.5677 82.422 20.4852 73.1391 20.5641 68.5455C20.6526 63.3938 15.7737 53.7856 15.1039 48.1904C14.3236 43.7041 11.419 42.4639 7.39597 41.9696C0.982839 41.1817 -2.58529 43.4742 2.2262 45.1119Z" fill="#0096CF"/>
<path fill-rule="evenodd" clip-rule="evenodd" d="M75.5709 9.74405C80.4655 15.0199 85.1014 20.3808 89.7491 25.8582C93.2762 30.0148 93.4517 31.4132 99.2262 31.3414C107.416 30.904 111.573 31.0197 112.376 29.3987C113.426 27.2801 109.341 27.1541 104.149 26.5979C99.8061 26.1326 99.3714 26.3596 94.4887 21.6834C90.4425 17.8084 85.2729 13.3514 81.6271 9.27056C78.3005 8.072 82.5635 3.55664 83.6143 2.0737C86.0556 -3.1228 70.6648 3.2549 75.5709 9.74405Z" fill="#DF4B22"/>
<path fill-rule="evenodd" clip-rule="evenodd" d="M4.97889 36.5428C7.85323 37.8014 13.2415 37.3733 15.3579 34.8082C17.4303 32.2964 19.5901 29.8152 21.6969 27.3262C24.1143 24.4702 33.5867 14.6845 33.8404 11.7326C33.8432 10.3184 31.6437 8.08637 30.0549 7.4863C27.826 7.08161 28.7291 10.4814 28.9276 12.1388C29.1935 14.3591 23.0892 19.976 21.5 21.8262C20.4521 23.0462 14.6628 30.0489 13.8922 30.4059C13.1073 30.7696 12.2503 32.6921 7.51603 33.9368C4.93563 34.6152 3.18192 35.6927 4.97889 36.5428Z" fill="#98CB2E"/>
<path fill-rule="evenodd" clip-rule="evenodd" d="M88.2511 33.7019C88.6081 34.6089 88.5747 35.672 88.3822 36.3379L87.9673 37.7738L70.3665 67.6029L65.7297 69.7809L28.2571 69.3074C25.1199 69.243 28.636 70.8078 30.3454 71.0055C32.3879 71.2417 34.7169 71.1121 36.8039 71.1711C41.1362 71.2934 45.4734 71.3799 49.8035 71.5141C54.039 71.6454 58.6272 71.743 62.8569 71.7291C66.9529 71.7156 70.1273 71.8458 72.5505 68.1787C75.9058 63.1013 79.2028 56.7059 82.3154 51.3411C85.3041 46.1897 91.6145 38.5443 88.0619 32.9443L88.2511 33.7019Z" fill="#1A2C3D"/>
<path fill-rule="evenodd" clip-rule="evenodd" d="M36.0166 8.89125C38.0334 11.8283 42.4023 10.7109 45.6067 10.2497C49.2119 9.73084 52.8359 9.24445 56.4482 8.78863C59.9762 8.34347 63.5877 7.7842 67.08 7.11756C69.6388 6.62907 71.9395 3.3539 73.6784 1.41029C74.2479 -0.989893 71.5103 0.228746 70.2699 1.02957C69.0587 2.08208 67.6076 3.10318 65.9637 3.53841C63.0883 4.29973 57.1858 4.73386 53.9477 5.14998C52.2596 5.36692 40.7917 7.14456 39.9788 6.53668C38.6049 5.5093 38.3635 4.34408 36.9383 4.68995C35.8715 5.05286 35.5341 7.11222 36.0166 8.89125Z" fill="#EECB00"/>
<path fill-rule="evenodd" clip-rule="evenodd" d="M36.0166 8.89112C37.4431 13.5287 41.6798 12.5378 45.6105 12.0529C49.6744 11.5517 53.75 11.0577 57.8092 10.5292C60.3105 10.2034 67.6111 9.4781 69.5711 8.56866C70.6544 8.06603 76.9146 2.65048 73.6785 1.41016C71.9395 3.35377 69.6389 6.62894 67.08 7.11743C63.5877 7.78407 59.9762 8.34334 56.4483 8.7885C52.8359 9.24432 49.2119 9.73071 45.6067 10.2496C42.4023 10.7107 38.0334 11.8282 36.0166 8.89112Z" fill="#1A2C3D"/>
<path fill-rule="evenodd" clip-rule="evenodd" d="M5.80884 36.8404C1.55614 39.2811 13.2296 39.8096 15.2879 37.5791C17.0734 35.9828 20.4988 31.3691 22.2264 29.2765C24.5213 26.4968 26.8793 23.7585 29.149 20.958C31.156 18.4816 35.6957 15.1714 33.8402 11.7324C33.5865 14.6843 24.1142 24.47 21.6967 27.326C19.5899 29.8151 17.4302 32.2962 15.3577 34.8081C13.2414 37.3732 9.27202 36.9941 5.80884 36.8404Z" fill="#1A2C3D"/>
<path fill-rule="evenodd" clip-rule="evenodd" d="M70.3667 67.603L87.9675 37.7739C87.9143 35.5802 85.8781 36.5663 84.1543 36.681C82.4812 36.7924 80.743 36.8371 79.0594 36.9216C75.4311 37.1039 71.807 37.3817 68.1811 37.5642C64.7053 37.7392 60.5356 36.7809 59.4553 40.1121C58.7002 42.4404 55.6933 44.7887 53.4708 45.6732C50.5697 46.8278 46.9227 47.0202 44.1808 45.3245C40.2042 42.8653 41.8546 39.0555 39.0105 39.2235C36.4831 39.3728 18.0171 40.204 17.2454 40.5797L16.7373 40.7495L25.6648 67.2743L25.7486 67.2705C25.8245 67.2816 32.8259 59.1914 33.4641 58.4198C36.0745 55.2641 44.293 56.7149 48.279 56.5789C51.5259 56.4681 61.4969 55.4075 63.2649 58.0435C65.4189 61.2548 68.3632 64.3206 70.3667 67.603Z" fill="#0A9F30"/>
<path fill-rule="evenodd" clip-rule="evenodd" d="M88.2513 33.7015L88.062 32.9439L70.286 11.8271L70.1774 11.9215C62.843 19.7839 68.4459 18.8231 55.9727 19.8655C52.6022 20.1471 49.134 20.3728 45.7833 20.7794C41.7016 21.2748 41.0236 20.1038 38.3834 17.3864C35.5893 14.5106 34.7522 17.257 32.7209 19.5953C31.0096 21.5653 29.3242 23.606 27.6428 25.6057C25.0037 28.7446 19.3729 34.6617 17.8481 38.0575C24.6695 37.9909 31.6473 37.1113 38.4877 36.9318C43.3753 36.8036 43.1027 28.8119 52.6172 29.3681C55.4387 29.533 58.2747 30.7634 59.416 33.4844C60.7287 36.614 64.7925 35.2164 67.9637 35.0069C74.7253 34.5603 81.4897 34.153 88.2513 33.7015Z" fill="#0A9F30"/>
<path fill-rule="evenodd" clip-rule="evenodd" d="M28.2573 69.3069L65.7299 69.7804C68.1292 69.0781 66.2113 67.9409 65.1828 66.4368C64.2974 65.1421 63.269 63.7455 62.3165 62.4957C61.0959 60.894 60.9591 59.657 58.7238 59.656C56.4854 59.655 54.248 59.648 52.003 59.648H42.2622C36.3722 59.648 37.0146 58.4259 33.3583 62.764C32.1825 64.1592 28.6117 67.8311 28.2573 69.3069Z" fill="#0A9F30"/>
<path fill-rule="evenodd" clip-rule="evenodd" d="M65.7298 11.1645C61.1416 11.2204 54.1253 12.4633 49.3102 13.0094C46.5814 13.3188 43.8536 13.6599 41.1246 13.9486C36.9584 14.3893 40.4632 15.8157 42.0222 17.4509C44.2069 19.7422 46.1863 18.6444 49.1517 18.4376C51.9174 18.2448 54.8044 17.9526 57.5689 17.6755C60.4761 17.3841 62.7594 18.0463 64.4622 15.4729C65.536 13.85 68.9399 11.1254 65.7298 11.1645Z" fill="#0A9F30"/>
<path fill-rule="evenodd" clip-rule="evenodd" d="M56.9294 38.2464C56.7658 38.1798 48.9039 38.6723 48.0025 38.7142C45.1388 38.8474 40.9765 38.648 45.1244 42.3893C47.1309 44.1992 50.2297 44.208 52.6195 43.214C53.6055 42.8039 54.7853 41.9664 55.5227 41.1928C55.8108 40.8906 57.5678 38.5066 56.9294 38.2464Z" fill="#0A9F30"/>
<path fill-rule="evenodd" clip-rule="evenodd" d="M51.2519 31.7132C48.8107 31.869 46.7675 32.6899 45.1467 34.5894C42.5434 37.6406 47.3713 36.3412 49.822 36.1534C51.145 36.0521 57.6007 36.2422 56.9888 34.8665C56.0065 32.6577 53.5484 31.5667 51.2519 31.7132Z" fill="#0A9F30"/>
<path fill-rule="evenodd" clip-rule="evenodd" d="M83.6001 81.7044C89.9394 90.9562 100.198 88.5639 91.1345 77.3564C91.4192 79.3529 93.7877 81.369 91.374 84.2589C89.5743 85.877 86.2256 83.5215 83.6001 81.7044Z" fill="#1A2C3D"/>
<path fill-rule="evenodd" clip-rule="evenodd" d="M81.6272 9.2701C81.8888 7.56641 87.2976 2.2332 83.6144 2.07324C82.5637 3.55617 78.3006 8.07154 81.6272 9.2701Z" fill="#1A2C3D"/>
<path fill-rule="evenodd" clip-rule="evenodd" d="M70.3667 67.603L87.9675 37.7739C87.9143 35.5802 85.8781 36.5663 84.1543 36.681C82.4812 36.7924 80.743 36.8371 79.0594 36.9216C75.4311 37.1039 71.807 37.3817 68.1811 37.5642C64.7053 37.7392 60.5356 36.7809 59.4553 40.1121C58.7002 42.4404 55.6933 44.7887 53.4708 45.6732C50.5697 46.8278 46.9227 47.0202 44.1808 45.3245C40.2042 42.8653 41.8546 39.0555 39.0105 39.2235C36.4831 39.3728 18.0171 40.204 17.2454 40.5797L16.7373 40.7495L25.6648 67.2743L25.7486 67.2705C25.8245 67.2816 32.8259 59.1914 33.4641 58.4198C36.0745 55.2641 44.293 56.7149 48.279 56.5789C51.5259 56.4681 61.4969 55.4075 63.2649 58.0435C65.4189 61.2548 68.3632 64.3206 70.3667 67.603Z" fill="#0A9F30"/>
<path fill-rule="evenodd" clip-rule="evenodd" d="M88.2513 33.7015L88.062 32.9439L70.286 11.8271L70.1774 11.9215C62.843 19.7839 68.4459 18.8231 55.9727 19.8655C52.6022 20.1471 49.134 20.3728 45.7833 20.7794C41.7016 21.2748 41.0236 20.1038 38.3834 17.3864C35.5893 14.5106 34.7522 17.257 32.7209 19.5953C31.0096 21.5653 29.3242 23.606 27.6428 25.6057C25.0037 28.7446 19.3729 34.6617 17.8481 38.0575C24.6695 37.9909 31.6473 37.1113 38.4877 36.9318C43.3753 36.8036 43.1027 28.8119 52.6172 29.3681C55.4387 29.533 58.2747 30.7634 59.416 33.4844C60.7287 36.614 64.7925 35.2164 67.9637 35.0069C74.7253 34.5603 81.4897 34.153 88.2513 33.7015Z" fill="#0A9F30"/>
<path fill-rule="evenodd" clip-rule="evenodd" d="M28.2573 69.3069L65.7299 69.7804C68.1292 69.0781 66.2113 67.9409 65.1828 66.4368C64.2974 65.1421 63.269 63.7455 62.3165 62.4957C61.0959 60.894 60.9591 59.657 58.7238 59.656C56.4854 59.655 54.248 59.648 52.003 59.648H42.2622C36.3722 59.648 37.0146 58.4259 33.3583 62.764C32.1825 64.1592 28.6117 67.8311 28.2573 69.3069Z" fill="#0A9F30"/>
<path fill-rule="evenodd" clip-rule="evenodd" d="M65.7298 11.1645C61.1416 11.2204 54.1253 12.4633 49.3102 13.0094C46.5814 13.3188 43.8536 13.6599 41.1246 13.9486C36.9584 14.3893 40.4632 15.8157 42.0222 17.4509C44.2069 19.7422 46.1863 18.6444 49.1517 18.4376C51.9174 18.2448 54.8044 17.9526 57.5689 17.6755C60.4761 17.3841 62.7594 18.0463 64.4622 15.4729C65.536 13.85 68.9399 11.1254 65.7298 11.1645Z" fill="#0A9F30"/>
<path fill-rule="evenodd" clip-rule="evenodd" d="M56.9294 38.2464C56.7658 38.1798 48.9039 38.6723 48.0025 38.7142C45.1388 38.8474 40.9765 38.648 45.1244 42.3893C47.1309 44.1992 50.2297 44.208 52.6195 43.214C53.6055 42.8039 54.7853 41.9664 55.5227 41.1928C55.8108 40.8906 57.5678 38.5066 56.9294 38.2464Z" fill="#0A9F30"/>
<path fill-rule="evenodd" clip-rule="evenodd" d="M51.2519 31.7132C48.8107 31.869 46.7675 32.6899 45.1467 34.5894C42.5434 37.6406 47.3713 36.3412 49.822 36.1534C51.145 36.0521 57.6007 36.2422 56.9888 34.8665C56.0065 32.6577 53.5484 31.5667 51.2519 31.7132Z" fill="#0A9F30"/>
</g>
<g clip-path="url(#clip1)">
<path d="M152.493 31.1337L153.637 36.4809H162.015L164.835 31.5039L162.546 44.584H173.662L179.874 9.12793H168.186L160.012 23.2363L156.784 9.12793H145.218L139.006 44.584H150.122L152.493 31.1337Z" fill="white"/>
<path d="M209.503 44.584H210.975H214.53H223.317L229.651 36.4809L233.942 44.584H245.835L236.639 27.3907L251.066 9.12793H237.252L231.163 16.9019L227.076 9.12793H215.184L224.093 25.9511L213.713 39.1957L209.503 44.584Z" fill="white"/>
<path d="M188.007 44.584L191.481 36.4809H197.039L197.733 44.584H205.457H209.013L208.236 39.1957L203.782 9.12793H194.055L176.441 44.584H188.007ZM193.974 30.0643L196.262 24.7582L196.63 30.0643H193.974Z" fill="white"/>
<path d="M260.139 48.4501L264.634 23.0303H253.518L247.306 58.4041H272.399L274.156 48.4501H260.139Z" fill="#0A9F30"/>
<path d="M282.411 23.0303L276.199 58.4041H287.315L293.527 23.0303H282.411Z" fill="#0A9F30"/>
<path d="M316.413 23.0303L313.798 38.0436L305.828 23.0303H297.328L291.116 58.4041H302.232L304.848 43.5553L312.735 58.4041H321.318L327.529 23.0303H316.413Z" fill="#0A9F30"/>
<path d="M353.766 32.9843L355.483 23.0303H331.33L325.118 58.4041H349.352L351.069 48.4501H337.992L338.563 45.1184H347.881L349.557 35.7402H340.239L340.689 32.9843H353.766Z" fill="#0A9F30"/>
<path d="M138.271 48.4502L134.797 58.4042H243.423L245.18 48.4502H138.271Z" fill="#0A9F30"/>
<path d="M254.172 19.164L255.929 9.20996H360.019L356.178 19.164H254.172Z" fill="white"/>
<path d="M367.329 10.5088C367.809 10.5088 368.289 10.6051 368.769 10.7977C369.201 10.9904 369.585 11.2312 369.969 11.5683C370.305 11.9054 370.594 12.2907 370.737 12.7723C370.929 13.2057 371.025 13.6873 371.025 14.2171C371.025 14.8913 370.881 15.5174 370.545 16.0471C370.21 16.6251 369.777 17.0585 369.201 17.3956C368.625 17.7328 368.001 17.8772 367.377 17.8772C366.705 17.8772 366.081 17.7328 365.553 17.3956C364.977 17.0585 364.545 16.6251 364.209 16.0471C363.873 15.4692 363.729 14.8432 363.729 14.2171C363.729 13.591 363.873 12.9168 364.209 12.387C364.545 11.8091 364.977 11.3757 365.553 11.0385C366.033 10.6533 366.657 10.5088 367.329 10.5088ZM367.329 11.2312C366.801 11.2312 366.321 11.3757 365.841 11.6165C365.409 11.8573 365.025 12.2425 364.785 12.676C364.497 13.1094 364.401 13.6392 364.401 14.1689C364.401 14.6987 364.545 15.1803 364.785 15.6619C365.073 16.0953 365.409 16.4806 365.889 16.7214C366.321 16.9622 366.849 17.1067 367.377 17.1067C367.905 17.1067 368.433 16.9622 368.865 16.7214C369.297 16.4806 369.681 16.0953 369.921 15.6619C370.161 15.2285 370.305 14.6987 370.305 14.1689C370.305 13.6392 370.161 13.1094 369.921 12.676C369.681 12.2425 369.297 11.8573 368.865 11.6165C368.337 11.3757 367.857 11.2312 367.329 11.2312ZM366.465 16.1435H365.649V12.2425H367.473C367.761 12.2425 368.001 12.2907 368.193 12.387C368.385 12.4833 368.529 12.6278 368.625 12.7723C368.721 12.9168 368.769 13.1576 368.769 13.3502C368.769 13.6392 368.673 13.88 368.481 14.0726C368.289 14.2652 368.049 14.4097 367.713 14.4579C367.905 14.506 368.001 14.6024 368.145 14.7468C368.241 14.8913 368.385 15.084 368.577 15.3729L369.057 16.1435H368.097L367.761 15.5174C367.617 15.2285 367.473 15.0358 367.377 14.8913C367.281 14.7468 367.185 14.6505 367.041 14.6024C366.945 14.5542 366.801 14.506 366.657 14.506H366.465V16.1435ZM366.465 12.8686V13.9281H367.089C367.377 13.9281 367.617 13.88 367.761 13.8318C367.905 13.7355 368.001 13.591 368.001 13.3984C368.001 13.2539 367.953 13.1094 367.809 13.0131C367.665 12.9168 367.473 12.8686 367.185 12.8686H366.465Z" fill="white"/>
</g>
<path d="M136.603 69.072H147.254L146.625 72.582H143.136L141.249 83.2744H137.617L139.504 72.582H135.994L136.603 69.072ZM157.6 69.072L156.992 72.4603H151.615L151.25 74.4486H156.16L155.551 77.7761H150.682L150.316 79.8658H155.795L155.206 83.2744H146.076L148.572 69.072H157.6ZM159.429 69.072H164.786C166.206 69.072 167.335 69.559 168.174 70.5328C169.013 71.4932 169.324 72.7308 169.107 74.2457C168.904 75.693 168.276 76.8495 167.22 77.7152C166.193 78.5809 164.847 79.0137 163.183 79.0137H161.316L160.566 83.2744H156.934L159.429 69.072ZM165.496 74.0429C165.591 73.583 165.516 73.2178 165.273 72.9472C165.029 72.6767 164.664 72.5415 164.177 72.5415H162.453L161.925 75.5645H163.69C164.164 75.5645 164.563 75.4293 164.887 75.1588C165.212 74.8747 165.415 74.5027 165.496 74.0429ZM171.437 69.072H176.793C178.213 69.072 179.343 69.559 180.181 70.5328C181.02 71.4932 181.331 72.7308 181.114 74.2457C180.912 75.693 180.283 76.8495 179.228 77.7152C178.2 78.5809 176.854 79.0137 175.19 79.0137H173.323L172.573 83.2744H168.941L171.437 69.072ZM177.503 74.0429C177.598 73.583 177.523 73.2178 177.28 72.9472C177.036 72.6767 176.671 72.5415 176.184 72.5415H174.46L173.932 75.5645H175.697C176.171 75.5645 176.57 75.4293 176.894 75.1588C177.219 74.8747 177.422 74.5027 177.503 74.0429ZM183.768 83.2744H180.948L183.444 69.072H187.075L185.858 75.9906L192.087 69.072H194.887L192.391 83.2744H188.78L189.997 76.3558L183.768 83.2744ZM196.222 69.072H206.874L206.245 72.582H202.755L200.868 83.2744H197.236L199.123 72.582H195.613L196.222 69.072ZM212.063 83.5788C210.656 83.6058 209.412 83.2609 208.33 82.544C207.248 81.8136 206.47 80.86 205.996 79.6832C205.536 78.4929 205.442 77.2485 205.712 75.95C206.05 73.9211 207.004 72.2168 208.573 70.8372C210.142 69.4575 212.029 68.7677 214.234 68.7677C216.384 68.7677 218.055 69.5251 219.245 71.0401C220.449 72.555 220.882 74.3269 220.544 76.3558C220.192 78.4118 219.245 80.1296 217.703 81.5093C216.188 82.8889 214.308 83.5788 212.063 83.5788ZM216.932 76.1732C217.135 75.0506 216.939 74.1308 216.344 73.4139C215.762 72.6835 214.917 72.3183 213.808 72.3183C212.712 72.3183 211.738 72.6835 210.886 73.4139C210.047 74.1308 209.527 75.0506 209.324 76.1732C209.121 77.3094 209.303 78.2359 209.872 78.9528C210.467 79.6697 211.305 80.0282 212.387 80.0282C213.47 80.0282 214.45 79.6697 215.329 78.9528C216.222 78.2089 216.756 77.2824 216.932 76.1732ZM223.507 69.072H228.863C230.283 69.072 231.413 69.559 232.251 70.5328C233.09 71.4932 233.401 72.7308 233.185 74.2457C232.982 75.693 232.353 76.8495 231.298 77.7152C230.27 78.5809 228.924 79.0137 227.26 79.0137H225.394L224.643 83.2744H221.011L223.507 69.072ZM229.573 74.0429C229.668 73.583 229.593 73.2178 229.35 72.9472C229.106 72.6767 228.741 72.5415 228.254 72.5415H226.53L226.002 75.5645H227.767C228.241 75.5645 228.64 75.4293 228.964 75.1588C229.289 74.8747 229.492 74.5027 229.573 74.0429ZM235.838 83.2744H233.018L235.514 69.072H239.145L237.928 75.9906L244.157 69.072H246.957L244.461 83.2744H240.85L242.067 76.3558L235.838 83.2744ZM254.074 69.072H259.694L257.199 83.2744H253.567L254.379 78.6891H253.79L250.219 83.2744H245.959L250.098 78.1616C249.286 77.7287 248.704 77.1065 248.353 76.295C248.015 75.4699 247.933 74.5839 248.109 73.6371C248.38 72.3521 249.029 71.2768 250.057 70.4111C251.112 69.5184 252.451 69.072 254.074 69.072ZM251.66 74.0226C251.579 74.4825 251.667 74.8679 251.924 75.179C252.194 75.4766 252.559 75.6254 253.019 75.6254H254.926L255.495 72.4197H253.567C253.094 72.4197 252.681 72.5685 252.329 72.8661C251.978 73.1637 251.755 73.5492 251.66 74.0226ZM275.693 68.6662L275.388 70.3705C277.241 70.6546 278.648 71.3376 279.609 72.4197C280.555 73.4883 280.893 74.8071 280.623 76.3761C280.339 77.9857 279.561 79.2775 278.29 80.2513C277.032 81.2252 275.382 81.8136 273.339 82.0165L273.035 83.6802H269.545L269.849 81.9759C267.983 81.7189 266.563 81.0426 265.589 79.947C264.642 78.8784 264.31 77.5529 264.595 75.9703C264.879 74.3472 265.65 73.0555 266.908 72.0951C268.179 71.1212 269.849 70.5328 271.919 70.3299L272.203 68.6662H275.693ZM268.206 76.1732C267.935 77.5799 268.679 78.4118 270.438 78.6688L271.331 73.6168C269.518 73.8738 268.477 74.7259 268.206 76.1732ZM277.032 76.1732C277.154 75.4428 277.032 74.8679 276.667 74.4486C276.315 74.0293 275.699 73.752 274.82 73.6168L273.928 78.6688C275.727 78.4118 276.761 77.5799 277.032 76.1732ZM287.036 74.895L290.18 69.072H294.056L288.375 78.9934C287.468 80.5895 286.447 81.7122 285.311 82.3614C284.175 82.9971 282.815 83.3015 281.233 83.2744L281.821 79.8861C283.012 79.9402 283.999 79.548 284.784 78.7094L281.72 69.072H285.291L287.036 74.895ZM294.378 69.072H305.03L304.401 72.582H300.911L299.025 83.2744H295.393L297.28 72.582H293.77L294.378 69.072ZM309.066 74.3066H311.298C312.651 74.3066 313.706 74.753 314.463 75.6457C315.22 76.5249 315.484 77.634 315.254 78.9731C315.011 80.3528 314.409 81.4146 313.449 82.1585C312.502 82.9024 311.257 83.2744 309.715 83.2744H303.852L306.347 69.072H315.762L315.153 72.582H309.37L309.066 74.3066ZM310.588 77.5732H308.478L308.072 79.947H310.162C311.027 79.947 311.528 79.5547 311.663 78.7702C311.731 78.378 311.67 78.0804 311.481 77.8775C311.291 77.6746 310.994 77.5732 310.588 77.5732ZM322.92 83.5788C321.513 83.6058 320.269 83.2609 319.187 82.544C318.105 81.8136 317.327 80.86 316.853 79.6832C316.394 78.4929 316.299 77.2485 316.569 75.95C316.908 73.9211 317.861 72.2168 319.43 70.8372C320.999 69.4575 322.886 68.7677 325.091 68.7677C327.242 68.7677 328.912 69.5251 330.102 71.0401C331.306 72.555 331.739 74.3269 331.401 76.3558C331.049 78.4118 330.102 80.1296 328.56 81.5093C327.045 82.8889 325.165 83.5788 322.92 83.5788ZM327.789 76.1732C327.992 75.0506 327.796 74.1308 327.201 73.4139C326.619 72.6835 325.774 72.3183 324.665 72.3183C323.569 72.3183 322.595 72.6835 321.743 73.4139C320.905 74.1308 320.384 75.0506 320.181 76.1732C319.978 77.3094 320.161 78.2359 320.729 78.9528C321.324 79.6697 322.162 80.0282 323.245 80.0282C324.327 80.0282 325.307 79.6697 326.186 78.9528C327.079 78.2089 327.613 77.2824 327.789 76.1732ZM330.14 83.315L330.729 79.9267C331.5 80.0079 332.081 79.8794 332.474 79.5412C332.866 79.2031 333.143 78.547 333.306 77.5732L334.807 69.072H344.911L342.415 83.2744H338.784L340.671 72.582H337.81L336.917 77.7355C336.741 78.7364 336.477 79.6021 336.126 80.3325C335.788 81.0629 335.395 81.6242 334.949 82.0165C334.516 82.4087 334.029 82.7266 333.488 82.9701C332.961 83.2 332.413 83.3218 331.845 83.3353C331.29 83.3488 330.722 83.342 330.14 83.315ZM357.227 83.2744H353.352L353.129 81.2252H348.402L347.428 83.2744H343.431L350.613 69.072H355.036L357.227 83.2744ZM352.256 73.1907L349.903 78.1007H352.784L352.256 73.1907Z" fill="white"/>
<defs>
<clipPath id="clip0">
<rect width="114.464" height="98" fill="white"/>
</clipPath>
<clipPath id="clip1">
<rect width="249.857" height="49.9714" fill="white" transform="translate(122.304 8.62402)"/>
</clipPath>
</defs>
</svg>
