<svg width="484" height="326" viewBox="0 0 484 326" fill="none" xmlns="http://www.w3.org/2000/svg">
<path d="M181 23.1279H484L467.228 118.215H219.228L181 23.1279Z" fill="#0A9F30"/>
<path d="M127.45 138H29.9766L34.7924 109.875L88.3451 62.2945C97.2063 54.5891 101.958 48.6816 102.6 44.572C102.857 42.5173 102.343 40.8477 101.059 39.5635C99.9032 38.1509 98.1695 37.4445 95.8579 37.4445C89.1799 37.4445 82.9513 42.1962 77.1723 51.6996L45.58 32.6286C51.7444 22.0979 59.6424 14.0714 69.2742 8.5492C79.0344 2.89856 89.5009 0.0732422 100.674 0.0732422C113.645 0.0732422 124.304 4.43965 132.651 13.1725C140.87 21.7768 143.824 32.8213 141.513 46.3058C140.228 54.1396 137.596 60.8818 133.614 66.5325C129.89 71.9263 123.854 78.219 115.507 85.4108L97.7842 100.629H134L127.45 138Z" fill="white"/>
<path d="M251.273 3.1554L244.723 40.5267H198.876L196.371 50.3511H202.343C216.084 50.3511 226.872 54.4607 234.706 62.6798C242.54 70.8989 245.108 82.5212 242.411 97.5468C239.843 111.673 233.357 122.461 222.955 129.91C212.681 137.358 200.353 141.082 185.969 141.082C173.512 141.082 163.174 138.386 154.955 132.992C146.864 127.469 141.278 119.507 138.196 109.105L173.833 90.4193C176.273 99.2805 181.795 103.711 190.4 103.711C198.619 103.711 203.306 100.629 204.462 94.4646C205.104 91.3825 204.462 88.9424 202.536 87.1445C200.738 85.3465 198.105 84.4476 194.638 84.4476H150.332L170.173 3.1554H251.273Z" fill="white"/>
<path d="M329.3 58.2163C328.192 63.8173 325.268 68.0641 320.529 70.9569C325.391 74.3421 327.33 79.2352 326.345 85.6363C325.545 91.1141 322.837 95.5148 318.221 98.8384C313.666 102.101 307.819 103.732 300.68 103.732H273.352L284.708 39.1055H309.45C316.467 39.1055 321.791 40.9212 325.422 44.5525C328.992 48.1224 330.285 52.677 329.3 58.2163ZM306.496 54.985H300.403L298.833 63.6634L305.942 63.5711C308.65 63.2018 310.22 61.7862 310.651 59.3242C310.897 57.847 310.62 56.7699 309.82 56.0929C309.02 55.3543 307.912 54.985 306.496 54.985ZM308.342 83.2359C308.773 80.5893 307.727 79.0813 305.203 78.712L296.248 78.6197L294.586 87.852H302.341C303.88 87.852 305.173 87.4519 306.219 86.6518C307.327 85.7901 308.035 84.6515 308.342 83.2359Z" fill="white"/>
<path d="M370.619 39.1055H392.222L364.802 75.7577L359.909 103.732H341.445L346.338 75.85L331.843 39.1055H351.231L357.509 58.6779L370.619 39.1055Z" fill="white"/>
<path d="M403.975 103.732H385.51L396.866 39.1055H411.637L426.501 70.126L431.949 39.1055H450.413L439.057 103.732H424.286L409.422 72.711L403.975 103.732Z" fill="white"/>
<path d="M47.4324 196.067H62.0487C70.907 196.067 77.6837 198.946 82.3786 204.704C87.0735 210.373 88.7123 217.637 87.295 226.495C85.7005 235.619 81.8471 242.662 75.7348 247.622C69.6226 252.583 61.6058 255.063 51.6844 255.063H10.4932L26.8368 162.051H90.6168L86.0991 187.829H48.8941L47.4324 196.067ZM56.0693 219.187H43.3133L41.3202 231.146H53.9433C55.715 231.146 57.2209 230.614 58.4611 229.551C59.7898 228.488 60.6314 227.027 60.9857 225.166C61.34 223.306 61.03 221.845 60.0556 220.782C59.1697 219.719 57.841 219.187 56.0693 219.187Z" fill="white"/>
<path d="M139.049 257.189C129.039 257.189 120.402 254.709 113.138 249.748C106.14 244.788 101.179 238.543 98.2561 231.013C95.4215 223.483 94.6685 215.467 95.9972 206.963C98.1232 194.118 104.191 183.089 114.201 173.877C124.3 164.575 136.701 159.925 151.406 159.925C158.847 159.925 165.579 161.342 171.603 164.177C177.715 166.923 182.543 170.732 186.087 175.604C193.439 185.614 196.096 196.953 194.059 209.62C192.022 222.553 186.042 233.715 176.121 243.105C166.377 252.494 154.019 257.189 139.049 257.189ZM125.894 224.768C129.437 229.02 134.487 231.146 141.042 231.146C147.597 231.146 153.399 229.02 158.449 224.768C163.498 220.427 166.598 215.024 167.75 208.557C168.901 202.09 167.705 196.731 164.162 192.479C160.619 188.139 155.57 185.968 149.014 185.968C142.371 185.968 136.568 188.139 131.608 192.479C126.559 196.731 123.458 202.09 122.307 208.557C121.155 215.024 122.351 220.427 125.894 224.768Z" fill="white"/>
<path d="M255.712 195.004L261.559 162.051H288.134L271.79 255.063H245.215L251.194 220.782H228.606L222.626 255.063H196.051L212.395 162.051H238.97L233.123 195.004H255.712Z" fill="white"/>
<path d="M333.434 197.528L351.903 162.051H381.136L343.798 226.362C337.863 236.549 330.909 243.858 322.936 248.287C315.141 252.627 305.353 254.886 293.571 255.063L297.956 230.349C304.954 230.171 311.066 228.045 316.293 223.971L296.096 162.051H322.671L333.434 197.528Z" fill="white"/>
<path d="M411.908 257.189C397.469 257.189 386.263 252.45 378.29 242.972C370.406 233.493 367.616 221.579 369.919 207.228C372.134 193.498 378.379 182.159 388.655 173.212C398.93 164.354 410.933 159.925 424.664 159.925C443.001 159.925 456.067 167.543 463.862 182.779L439.546 195.668C436.002 189.202 430.245 185.968 422.272 185.968C415.894 185.968 410.269 188.094 405.397 192.346C400.613 196.51 397.602 201.913 396.361 208.557C395.298 214.847 396.361 220.206 399.55 224.635C402.739 228.976 407.523 231.146 413.901 231.146C421.253 231.146 427.587 227.691 432.902 220.782L454.959 234.733C450.176 241.909 444.019 247.445 436.49 251.343C429.049 255.241 420.855 257.189 411.908 257.189Z" fill="white"/>
<path d="M29.8845 293.202C29.3041 296.548 27.5969 298.972 24.7629 300.474C27.6993 302.557 28.8431 305.374 28.1944 308.925C27.6139 312.203 26.0092 314.747 23.3801 316.556C20.7851 318.366 17.3024 319.271 12.9319 319.271C6.23964 319.271 1.93747 316.522 0.0253906 311.025L8.98825 306.262C9.63699 308.447 11.3271 309.54 14.0587 309.54C16.4488 309.54 17.8316 308.72 18.2072 307.081C18.4462 305.715 17.7292 304.947 16.0561 304.776L10.6272 304.725L12.1637 296.018L16.4146 295.967C18.1901 295.865 19.2145 295.097 19.4876 293.662C19.7266 292.092 18.8218 291.307 16.7731 291.307C14.6221 291.307 13.0002 292.416 11.9076 294.636L3.76418 289.309C5.26653 286.885 7.26397 285.024 9.7565 283.726C12.2832 282.429 15.1001 281.78 18.2072 281.78C22.0655 281.78 25.1043 282.873 27.3237 285.058C29.6114 287.243 30.465 289.958 29.8845 293.202Z" fill="white"/>
<path d="M61.6107 318.451H50.9064L50.4967 313.842H40.151L38.1024 318.451H26.7835L44.5044 282.6H56.489L61.6107 318.451ZM48.7041 294.636L43.7874 305.647H49.7285L48.7041 294.636Z" fill="white"/>
<path d="M80.2202 282.6H94.3047C97.7533 282.6 100.587 283.829 102.807 286.287C104.992 288.677 105.811 291.904 105.265 295.967C104.685 299.757 103.063 302.762 100.399 304.981C97.7021 307.201 94.2535 308.31 90.0537 308.31H85.9564L84.1639 318.451H73.9206L80.2202 282.6ZM95.1242 295.455C95.2949 294.567 95.1242 293.867 94.612 293.355C94.0998 292.809 93.4169 292.536 92.5633 292.536H88.7221L87.6978 298.374H91.7951C92.6146 298.374 93.3316 298.118 93.9462 297.606C94.5949 297.06 94.9876 296.343 95.1242 295.455Z" fill="white"/>
<path d="M133.983 282.6L132.344 291.921H119.284L118.618 295.814H130.398L128.759 305.033H116.98L116.263 309.027H129.579L127.94 318.451H104.38L110.68 282.6H133.983Z" fill="white"/>
<path d="M138.339 282.6H160.362L158.62 292.536H146.841L142.282 318.451H132.039L138.339 282.6Z" fill="white"/>
<path d="M164.842 318.451H156.647L162.947 282.6H173.19L170.424 298.477L184.457 282.6H192.652L186.352 318.451H176.109L178.875 302.574L164.842 318.451Z" fill="white"/>
<path d="M209.589 319.271C204.023 319.271 199.704 317.444 196.631 313.79C193.592 310.137 192.517 305.545 193.404 300.013C194.258 294.721 196.665 290.35 200.626 286.902C204.587 283.487 209.213 281.78 214.505 281.78C221.573 281.78 226.61 284.717 229.614 290.589L220.242 295.557C218.876 293.065 216.657 291.819 213.584 291.819C211.125 291.819 208.957 292.638 207.079 294.277C205.235 295.882 204.074 297.965 203.596 300.525C203.187 302.95 203.596 305.015 204.826 306.723C206.055 308.396 207.899 309.232 210.357 309.232C213.191 309.232 215.632 307.901 217.681 305.237L226.183 310.615C224.339 313.381 221.966 315.515 219.064 317.017C216.196 318.519 213.037 319.271 209.589 319.271Z" fill="white"/>
<path d="M232.121 282.6H259.265L257.524 292.536H249.073L244.515 318.451H234.272L238.83 292.536H230.379L232.121 282.6Z" fill="white"/>
<path d="M262.328 282.6H276.413C279.861 282.6 282.695 283.829 284.915 286.287C287.1 288.677 287.919 291.904 287.373 295.967C286.793 299.757 285.171 302.762 282.508 304.981C279.81 307.201 276.362 308.31 272.162 308.31H268.065L266.272 318.451H256.029L262.328 282.6ZM277.232 295.455C277.403 294.567 277.232 293.867 276.72 293.355C276.208 292.809 275.525 292.536 274.672 292.536H270.83L269.806 298.374H273.903C274.723 298.374 275.44 298.118 276.054 297.606C276.703 297.06 277.096 296.343 277.232 295.455Z" fill="white"/>
<path d="M315.692 318.451H304.988L304.578 313.842H294.232L292.184 318.451H280.865L298.586 282.6H310.57L315.692 318.451ZM302.785 294.636L297.869 305.647H303.81L302.785 294.636Z" fill="white"/>
<path d="M353.241 282.6L348.683 308.515H353.037L350.066 325.314H339.823L341.052 318.451H317.748L324.048 282.6H334.803L330.245 308.515H337.928L342.486 282.6H353.241Z" fill="white"/>
<path d="M362.555 318.451H354.36L360.66 282.6H370.903L368.137 298.477L382.171 282.6H390.365L384.066 318.451H373.822L376.588 302.574L362.555 318.451Z" fill="white"/>
<path d="M427.43 281.78C430.4 281.78 433.047 282.327 435.368 283.419C437.69 284.512 439.5 285.997 440.797 287.875C443.426 291.733 444.348 296.121 443.563 301.038C442.778 305.92 440.541 310.12 436.854 313.637C435.044 315.378 432.842 316.761 430.247 317.785C427.652 318.776 424.852 319.271 421.847 319.271C417.477 319.271 413.823 317.939 410.887 315.276C408.019 312.613 406.397 309.181 406.021 304.981H401.771L399.415 318.451H389.171L395.471 282.6H405.714L403.512 295.045H407.712C409.385 291.05 411.997 287.841 415.548 285.417C419.099 282.992 423.059 281.78 427.43 281.78ZM429.837 306.774C431.783 305.101 432.978 303.018 433.422 300.525C433.866 298.033 433.405 295.967 432.039 294.328C430.674 292.655 428.727 291.819 426.201 291.819C423.64 291.819 421.403 292.655 419.491 294.328C417.545 295.967 416.35 298.033 415.906 300.525C415.462 303.018 415.923 305.101 417.289 306.774C418.689 308.413 420.635 309.232 423.128 309.232C425.654 309.232 427.891 308.413 429.837 306.774Z" fill="white"/>
</svg>
